<?xml version="1.0" standalone="no"?>
<!DOCTYPE svg PUBLIC "-//W3C//DTD SVG 1.1//EN" "http://www.w3.org/Graphics/SVG/1.1/DTD/svg11.dtd" >
<svg xmlns="http://www.w3.org/2000/svg">
<metadata>Generated by IcoMoon</metadata>
<defs>
<font id="iconfont" horiz-adv-x="1024">
<font-face units-per-em="1024" ascent="960" descent="-64" />
<missing-glyph horiz-adv-x="1024" />
<glyph unicode="&#x20;" horiz-adv-x="512" d="" />
<glyph unicode="&#xe8f5;" glyph-name="select-on" d="M512 894.017c-245.92 0-446.017-200.095-446.017-446.017 0-245.952 200.064-446.017 446.017-446.017s446.017 200.064 446.017 446.017c0 245.92-200.064 446.017-446.017 446.017zM512 65.983c-210.656 0-382.017 171.392-382.017 382.017 0 210.656 171.359 382.017 382.017 382.017 210.625 0 382.017-171.359 382.017-382.017 0-210.625-171.392-382.017-382.017-382.017zM512 607.999c-88.224 0-160.001-71.775-160.001-159.999s71.775-160.001 160.001-160.001 160.001 71.775 160.001 160.001-71.777 159.999-160.001 159.999z" />
<glyph unicode="&#xe900;" glyph-name="cross" d="M810.66 789.34q18.33 0 30.495-12.165t12.165-30.495q0-18.002-12.329-30.331l-268.677-268.329 268.677-268.329q12.329-12.329 12.329-30.331 0-18.33-12.165-30.495t-30.495-12.165q-18.002 0-30.331 12.329l-268.329 268.677-268.329-268.677q-12.329-12.329-30.331-12.329-18.33 0-30.495 12.165t-12.165 30.495q0 18.002 12.329 30.331l268.677 268.329-268.677 268.329q-12.329 12.329-12.329 30.331 0 18.33 12.165 30.495t30.495 12.165q18.002 0 30.331-12.329l268.329-268.677 268.329 268.677q12.329 12.329 30.331 12.329z" />
<glyph unicode="&#xe901;" glyph-name="select" d="M338.311 258.756l-237.942 237.943-79.314-79.314 317.257-317.257 679.837 679.837-79.314 79.313z" />
<glyph unicode="&#xe902;" glyph-name="mode-smart" d="M510.376 662.606c-119.387 0-216.166-93.039-216.166-207.807 0-51.568 35.914-170.24 43.23-187.024 35.131-80.524 43.236-166.244 172.937-166.244 116.183 0 140.502 88.317 172.926 166.244 7.029 16.894 43.233 135.455 43.233 187.024 0 114.769-96.778 207.807-216.159 207.807zM637.31 287.274c-2.932-7.036-5.792-14.156-8.66-21.294-30.159-74.97-49.116-114.095-118.275-114.095-74.844 0-86.209 29.962-111.103 95.609-4.975 13.122-10.118 26.689-16.12 40.444-7.654 18.363-39.061 126.561-39.061 166.86 0 86.821 74.595 157.453 166.284 157.453 91.683 0 166.277-70.632 166.277-157.453 0.001-41.575-32.813-151.498-39.342-167.524zM427.232-0.375h166.281v50.355h-166.281v-50.355zM535.314 897.585h-49.882v-134.275h49.882v134.275zM212.078 797.894l-35.268-35.6 94.059-94.944 35.268 35.6-94.059 94.944zM61.42 452.801h133.023v50.355h-133.023v-50.355zM826.3 503.155v-50.355h133.030v50.355h-133.030zM802.959 797.894l-94.059-94.944 35.268-35.6 94.059 94.944-35.268 35.6z" />
<glyph unicode="&#xe903;" glyph-name="mode-cool" horiz-adv-x="1141" d="M674.693 452.508c50.882 44.916 82.978 110.619 82.978 183.828 0 134.334-108.049 243.413-241.978 245.118v0.040h-60.601v-269.986c-44.916 50.882-110.619 82.978-183.828 82.978-134.334 0-243.413-108.049-245.118-241.978h-0.040v-60.601h269.986c-50.882-44.916-82.978-110.619-82.978-183.828 0-134.334 108.049-243.413 241.978-245.118v-0.040h60.601v269.986c44.916-50.882 110.619-82.978 183.828-82.978 134.334 0 243.413 108.049 245.118 241.978h0.041v60.601h-269.987zM515.693 819.477c99.699-1.699 180-83.036 180-183.139 0-99.879-79.942-181.068-179.329-183.12-0.077 4.916-0.309 9.793-0.671 14.635v351.625zM88.124 452.508c1.699 99.699 83.036 180 183.139 180 99.879 0 181.068-79.942 183.12-179.329-4.916-0.077-9.793-0.309-14.635-0.671h-351.625zM455.092 24.939c-99.699 1.699-180 83.036-180 183.139 0 99.879 79.942 181.068 179.329 183.12 0.077-4.916 0.309-9.793 0.671-14.635v-351.625zM699.521 211.908c-99.879 0-181.068 79.942-183.12 179.329 4.916 0.077 9.793 0.309 14.635 0.671h351.626c-1.7-99.699-83.036-180-183.14-180z" />
<glyph unicode="&#xe904;" glyph-name="pull-up" d="M182.139 326.867l352.564 297.834c19.025 16.080 47.075 15.38 65.275-1.63l323.859-302.589c19.83-18.53 20.89-49.635 2.355-69.47-18.53-19.835-49.635-20.89-69.47-2.36l-291.943 272.769-319.2-269.649c-20.74-17.52-51.75-14.91-69.267 5.83-7.797 9.23-11.607 20.49-11.605 31.69 0 13.97 5.925 27.85 17.432 37.575z" />
<glyph unicode="&#xe905;" glyph-name="pull-down" d="M186.413 554.027c-0.001 10.504 3.571 21.061 10.88 29.714 16.423 19.441 45.496 21.887 64.938 5.464l299.25-252.801 273.699 255.724c18.596 17.375 47.755 16.385 65.129-2.211s16.384-47.756-2.211-65.129l-303.618-283.678c-17.064-15.944-43.356-16.601-61.195-1.531l-330.528 279.224c-10.789 9.114-16.343 22.127-16.344 35.224z" />
<glyph unicode="&#xe906;" glyph-name="minus" d="M578.7 389.44h240.9c23.5 0 42.5 19 42.5 42.5s-19 42.5-42.5 42.5h-240.9zM587.5 474.44h-334.7c-23.5 0-42.5-19-42.5-42.5s19-42.5 42.5-42.5h334.7z" />
<glyph unicode="&#xe907;" glyph-name="plus" d="M840.836 494.137h-284.472v284.44c0 24.518-19.852 44.4-44.386 44.4-24.543 0-44.392-19.882-44.392-44.4v-284.44h-284.421c-24.544 0-44.392-19.882-44.392-44.4 0-24.504 19.848-44.386 44.392-44.386h284.422v-284.454c0-24.5 19.849-44.384 44.392-44.384 24.534 0 44.386 19.884 44.386 44.384v284.454h284.472c24.544 0 44.392 19.882 44.392 44.386-0.002 24.518-19.849 44.4-44.393 44.4z" />
<glyph unicode="&#xe908;" glyph-name="power" d="M561.312 891.809h-98.624v-493.121h98.624v493.121zM799.735 785.048l-69.776-69.776c77.42-63.366 127.226-159.278 127.226-267.271 0-190.591-154.593-345.185-345.185-345.185s-345.185 154.593-345.185 345.184c0 107.994 49.805 203.905 127.226 267.271l-69.776 69.776c-95.174-81.364-156.074-201.932-156.074-337.047 0-245.081 198.728-443.809 443.809-443.809s443.809 198.728 443.809 443.809c0 135.115-60.901 255.683-156.074 337.048z" />
<glyph unicode="&#xe909;" glyph-name="pull-right" d="M761.056 427.872c0.513 0.993 1.343 1.823 1.792 2.849 8.801 18.305 5.919 40.703-9.664 55.425l-353.248 334.111c-19.265 18.208-49.631 17.345-67.872-1.889-18.208-19.265-17.376-49.631 1.889-67.872l316.96-299.839-315.713-304.288c-19.072-18.399-19.648-48.768-1.247-67.872 9.408-9.791 21.984-14.689 34.561-14.689 12 0 24 4.479 33.312 13.44l350.048 337.376c0.673 0.673 0.927 1.6 1.6 2.303 0.513 0.48 1.056 0.833 1.567 1.343 2.72 2.85 4.159 6.339 6.016 9.602z" />
<glyph unicode="&#xe90a;" glyph-name="shopping-cart-ing" d="M604.814 497.209c-0.171 1.308-0.341 2.645-0.512 3.982-8.107 63.545-8.732 130.93 2.958 193.308 19.257 102.912 68.58 173.653 156.103 202.61l-17.863 54.016c-109.824-36.324-171.435-124.672-194.162-246.158-12.089-64.654-12.288-132.693-5.063-197.66l-81.38 91.762-42.553-37.746 127.033-143.246c16.498-18.603 44.828-18.574 61.298 0l127.033 143.246-42.553 37.746-90.34-101.86zM349.44 66.048c-35.84 0-64.882-29.099-64.882-65.024s29.042-65.024 64.882-65.024 64.882 29.099 64.882 65.024-29.042 65.024-64.882 65.024zM803.669 66.048c-35.84 0-64.91-29.099-64.91-65.024s29.042-65.024 64.91-65.024c35.84 0 64.882 29.099 64.882 65.024 0.028 35.925-29.013 65.024-64.882 65.024zM868.068 98.532h-527.047c-46.763 0-87.865 37.063-93.582 84.366l-55.012 388.153-31.317 181.39c-1.934 15.815-16.356 28.757-30.436 28.757h-41.33c-17.92 0-32.455 14.564-32.455 32.512s14.535 32.512 32.455 32.512h41.33c47.332 0 88.917-37.063 94.635-84.366l31.26-180.708 55.268-389.803c1.792-15.076 15.417-27.79 29.184-27.79h527.019c17.948 0 32.455-14.535 32.455-32.512s-14.507-32.512-32.427-32.512zM626.688 683.691h251.563c6.116 0 11.378-2.418 15.588-7.14 6.514-7.424 9.529-19.371 8.249-30.293l-51.143-292.978c-1.792-14.478-15.417-27.164-31.573-27.278l-440.178-32.512c-17.835-1.308-31.289-16.868-29.952-34.788 1.252-17.124 15.474-30.123 32.313-30.123 0.768 0 1.593 0.028 2.389 0.085l437.76 32.398c46.763 0 87.836 37.063 93.355 82.631l51.143 293.006c3.812 31.317-4.892 61.497-23.836 82.916-16.583 18.773-39.367 29.070-64.142 29.070h-234.553c-8.363-18.091-13.653-42.695-16.981-64.996zM520.704 683.691h-204.231c-17.92 0-32.455 14.564-32.455 32.512s14.535 32.512 32.455 32.512h213.134c-6.116-20.11-11.207-44.402-8.903-65.024z" />
<glyph unicode="&#xe90b;" glyph-name="check-through" d="M512-64c282.77 0 512 229.23 512 512s-229.23 512-512 512c-282.77 0-512-229.23-512-512s229.23-512 512-512zM512-26.074c-261.824 0-474.074 212.25-474.074 474.074s212.25 474.074 474.074 474.074c261.824 0 474.074-212.25 474.074-474.074s-212.25-474.074-474.074-474.074zM768.493 605.696l-330.6-337.086-183.751 187.278c-8.704 8.856-22.737 8.856-31.441 0s-8.704-23.173 0-32.028l199.396-203.226c8.704-8.856 22.737-8.856 31.441 0l346.377 352.901c8.704 9.007 8.704 23.324 0 32.18-8.704 8.837-22.718 8.837-31.422-0.019z" />
<glyph unicode="&#xe90c;" glyph-name="todos" d="M377.492 504.476h302.097c13.034 0 23.604 10.57 23.604 23.604s-10.57 23.604-23.604 23.604h-302.097c-13.052 0-23.604-10.57-23.604-23.604s10.552-23.604 23.604-23.604zM377.492 664.567h302.097c13.034 0 23.604 10.57 23.604 23.604s-10.57 23.604-23.604 23.604h-302.097c-13.052 0-23.604-10.57-23.604-23.604s10.552-23.604 23.604-23.604zM393.511 856.68h118.003c13.034 0 23.604 10.57 23.604 23.604s-10.57 23.604-23.604 23.604h-118.003c-13.052 0-23.604-10.57-23.604-23.604s10.535-23.604 23.604-23.604zM606.312 823.010c13.034 0 23.604 11.472 23.604 25.617v76.852c0 14.145-10.57 25.617-23.604 25.617s-23.604-11.472-23.604-25.617v-76.852c0-14.145 10.57-25.617 23.604-25.617zM298.696 823.010c13.052 0 23.604 11.472 23.604 25.617v76.852c0 14.145-10.552 25.617-23.604 25.617s-23.604-11.472-23.604-25.617v-76.852c0-14.145 10.535-25.617 23.604-25.617zM803.545 420.3v412.776c0 39.051-26.815 70.812-59.756 70.812h-34.642c-13.034 0-23.604-10.57-23.604-23.604s10.57-23.604 23.604-23.604h34.642c5.068 0 12.548-9.91 12.548-23.604v-392.938c-22.91 6.942-47.225 10.674-72.409 10.674-56.945 0-109.429-19.092-151.396-51.217h-155.041c-13.052 0-23.604-10.57-23.604-23.604s10.552-23.604 23.604-23.604h107.937c-31.9-41.897-50.836-94.173-50.836-150.892 0-50.263 14.874-97.054 40.457-136.209h-326.378c-13.034 0-23.604 10.57-23.604 23.604v744.188c0 13 10.327 23.604 23.101 23.604h47.694c13.052 0 23.604 10.57 23.604 23.604s-10.552 23.604-23.604 23.604h-47.694c-38.773 0-70.309-31.779-70.309-70.812v-744.188c0-39.033 31.779-70.795 70.812-70.812h366.384c44.414-40.908 103.719-65.9 168.873-65.9 137.702 0 249.318 111.616 249.318 249.318 0 94.347-52.415 176.458-129.701 218.806zM683.928 4.244c-108.943 0-197.25 88.307-197.25 197.25 0 100.074 74.509 182.723 171.077 195.532v-210.059l184.875-102.626c-35.944-48.597-93.653-80.098-158.703-80.098zM710.777 216.455v180.484c96.239-13.104 170.383-95.614 170.383-195.428 0-25.288-4.756-49.464-13.433-71.68l-156.95 86.623zM287.38 551.684h-77.98c-13.052 0-23.604-10.57-23.604-23.604s10.552-23.604 23.604-23.604h77.98c13.034 0 23.604 10.57 23.604 23.604s-10.57 23.604-23.604 23.604zM287.38 711.775h-77.98c-13.052 0-23.604-10.57-23.604-23.604s10.552-23.604 23.604-23.604h77.98c13.034 0 23.604 10.57 23.604 23.604s-10.57 23.604-23.604 23.604zM287.38 399.594h-77.98c-13.052 0-23.604-10.57-23.604-23.604s10.552-23.604 23.604-23.604h77.98c13.034 0 23.604 10.57 23.604 23.604s-10.57 23.604-23.604 23.604z" />
<glyph unicode="&#xe90d;" glyph-name="ellipsis" d="M223.962 352.102c-52.98 0-95.984 43.004-95.984 95.984s43.004 95.984 95.984 95.984 95.984-43.004 95.984-95.984-43.004-95.984-95.984-95.984zM511.914 352.102c-52.98 0-95.984 43.004-95.984 95.984s43.004 95.984 95.984 95.984 95.984-43.004 95.984-95.984-43.004-95.984-95.984-95.984zM800.038 352.102c-52.98 0-95.984 43.004-95.984 95.984s43.004 95.984 95.984 95.984 95.984-43.004 95.984-95.984-43.176-95.984-95.984-95.984z" />
<glyph unicode="&#xe90e;" glyph-name="mode-holiday" d="M947.2 422.4h-51.2c-14.336 0-25.6 11.264-25.6 25.6s11.264 25.6 25.6 25.6h51.2c14.336 0 25.6-11.264 25.6-25.6s-11.264-25.6-25.6-25.6zM801.792 121.344l-27.648 27.648c-10.24 10.24-10.24 26.624 0 35.84 10.24 10.24 26.624 10.24 35.84 0l27.648-27.648c10.24-10.24 10.24-26.624 0-35.84-9.216-10.24-25.6-10.24-35.84 0zM811.008 710.144c-10.24-10.24-26.624-10.24-35.84 0-10.24 10.24-10.24 26.624 0 35.84l27.648 27.648c10.24 10.24 26.624 10.24 35.84 0 10.24-10.24 10.24-26.624 0-35.84l-27.648-27.648zM512 140.8c-169.984 0-307.2 137.216-307.2 307.2s137.216 307.2 307.2 307.2 307.2-137.216 307.2-307.2-137.216-307.2-307.2-307.2zM512 701.952c-140.288 0-253.952-113.664-253.952-253.952s113.664-253.952 253.952-253.952 253.952 113.664 253.952 253.952-113.664 253.952-253.952 253.952zM512 806.4c-14.336 0-25.6 11.264-25.6 25.6v51.2c0 14.336 11.264 25.6 25.6 25.6s25.6-11.264 25.6-25.6v-51.2c0-14.336-11.264-25.6-25.6-25.6zM212.992 710.144l-27.648 27.648c-10.24 10.24-10.24 26.624 0 35.84s26.624 10.24 35.84 0l27.648-27.648c10.24-10.24 10.24-26.624 0-35.84s-25.6-10.24-35.84 0zM128 422.4h-51.2c-14.336 0-25.6 11.264-25.6 25.6s11.264 25.6 25.6 25.6h51.2c14.336 0 25.6-11.264 25.6-25.6s-11.264-25.6-25.6-25.6zM214.016 186.88c10.24 10.24 26.624 10.24 35.84 0 10.24-10.24 10.24-26.624 0-35.84l-27.648-27.648c-10.24-10.24-26.624-10.24-35.84 0-10.24 10.24-10.24 26.624 0 35.84l27.648 27.648zM512 89.6c14.336 0 25.6-11.264 25.6-25.6v-51.2c0-14.336-11.264-25.6-25.6-25.6s-25.6 11.264-25.6 25.6v51.2c0 14.336 11.264 25.6 25.6 25.6z" />
<glyph unicode="&#xe90f;" glyph-name="bars" d="M350.393 663.448h574.527c19.782 0 35.951 16.169 35.951 35.951s-15.997 35.951-35.951 35.951h-574.527c-19.782 0-35.951-16.169-35.951-35.951s16.169-35.951 35.951-35.951zM924.92 483.865h-574.527c-19.782 0-35.951-16.169-35.951-35.951s16.169-35.951 35.951-35.951h574.527c19.782 0 35.951 16.169 35.951 35.951s-16.169 35.951-35.951 35.951zM924.92 232.552h-574.527c-19.782 0-35.951-15.997-35.951-35.951s16.169-35.951 35.951-35.951h574.527c19.782 0 35.951 15.997 35.951 35.951s-16.169 35.951-35.951 35.951zM63.129 699.399c0-39.735 32.167-71.902 71.902-71.902s71.902 32.167 71.902 71.902-32.167 71.902-71.902 71.902-71.902-32.339-71.902-71.902zM63.129 448.086c0-39.735 32.167-71.902 71.902-71.902s71.902 32.167 71.902 71.902c0 39.735-32.167 71.902-71.902 71.902s-71.902-32.339-71.902-71.902zM63.129 196.601c0-39.735 32.167-71.902 71.902-71.902s71.902 32.167 71.902 71.902c0 39.735-32.167 71.902-71.902 71.902s-71.902-32.167-71.902-71.902z" />
<glyph unicode="&#xe910;" glyph-name="pull-left" d="M671.968 48c-12.287 0-24.576 4.672-33.952 14.047l-351.968 351.968c-18.752 18.719-18.752 49.12 0 67.872l351.968 352.001c18.752 18.752 49.12 18.752 67.872 0 18.752-18.719 18.752-49.12 0-67.872l-318.017-318.048 318.017-318.017c18.752-18.752 18.752-49.12 0-67.872-9.344-9.408-21.633-14.080-33.921-14.080z" />
<glyph unicode="&#xe911;" glyph-name="round-close" d="M512 896c-247.008 0-448-200.96-448-448s200.96-448 448-448c247.008 0 448 200.96 448 448s-200.96 448-448 448zM694.752 310.016c12.48-12.544 12.448-32.768-0.064-45.248-6.24-6.208-14.4-9.344-22.592-9.344-8.224 0-16.416 3.136-22.656 9.408l-137.6 138.016-138.048-136.576c-6.24-6.144-14.368-9.248-22.496-9.248-8.256 0-16.48 3.168-22.752 9.504-12.416 12.576-12.32 32.8 0.256 45.248l137.888 136.384-137.376 137.824c-12.48 12.512-12.448 32.768 0.064 45.248 12.512 12.512 32.736 12.448 45.248-0.064l137.568-137.984 138.048 136.576c12.544 12.448 32.832 12.32 45.248-0.256 12.448-12.576 12.32-32.832-0.256-45.248l-137.888-136.384 137.408-137.856z" />
<glyph unicode="&#xe912;" glyph-name="delete" d="M607.898 191.957c-17.717 0-31.995 14.277-31.995 31.995v352.113c0 17.717 14.277 31.995 31.995 31.995s31.995-14.277 31.995-31.995v-351.941c0-17.717-14.277-32.167-31.995-32.167zM415.93 191.957c-17.717 0-31.995 14.277-31.995 31.995v352.113c0 17.717 14.277 31.995 31.995 31.995s31.995-14.277 31.995-31.995v-351.941c0-17.717-14.277-32.167-31.995-32.167zM928.016 736.038h-159.973v63.989c0 52.98-42.659 95.984-95.296 95.984h-320.806c-52.98 0-95.984-43.004-95.984-95.984v-63.989h-159.973c-17.717 0-31.995-14.277-31.995-31.995s14.277-31.995 31.995-31.995h832.032c17.717 0 31.995 14.277 31.995 31.995s-14.277 31.995-31.995 31.995zM319.946 800.027c0 17.545 14.449 31.995 31.995 31.995h320.806c17.545 0 31.307-14.105 31.307-31.995v-63.989h-384.108v63.989zM736.048-0.011h-447.925c-52.98 0-95.984 43.004-95.984 95.984v480.435c0 17.717 14.277 31.995 31.995 31.995s31.995-14.277 31.995-31.995v-480.435c0-17.717 14.449-31.995 31.995-31.995h448.097c17.717 0 31.995 14.277 31.995 31.995v479.231c0 17.717 14.277 31.995 31.995 31.995s31.995-14.277 31.995-31.995v-479.231c-0.172-52.808-43.176-95.984-96.156-95.984z" />
<glyph unicode="&#xe913;" glyph-name="settting" d="M511.914 352.102c-52.98 0-95.984 43.004-95.984 95.984s43.004 95.984 95.984 95.984 95.984-43.004 95.984-95.984-43.004-95.984-95.984-95.984zM511.914 480.081c-17.545 0-31.995-14.449-31.995-31.995s14.449-31.995 31.995-31.995 31.995 14.449 31.995 31.995-14.277 31.995-31.995 31.995zM630.948-0.011c-9.977 0-19.782 4.816-25.802 13.073l-73.45 100.628c-13.589-0.86-25.974-0.86-39.563 0l-73.45-100.456c-7.913-10.837-21.674-15.653-34.575-11.869-34.575 9.805-67.43 23.394-97.704 40.251-11.697 6.537-18.061 19.61-15.997 32.855l19.266 123.334c-9.805 8.773-19.094 18.061-27.866 27.866l-123.334-19.266c-13.073-2.064-26.318 4.3-32.855 15.997-16.857 30.446-30.446 63.301-40.251 97.876-3.612 12.901 1.032 26.662 11.869 34.575l100.456 73.45c-0.516 6.881-0.688 13.417-0.688 19.782s0.172 12.901 0.688 19.782l-100.456 73.45c-10.837 7.913-15.653 21.674-11.869 34.575 9.805 34.575 23.394 67.43 40.251 97.704 6.537 11.697 19.782 18.061 32.855 15.997l123.334-19.266c8.773 9.805 18.061 19.094 27.866 27.866l-19.266 123.334c-2.064 13.245 4.3 26.318 16.169 32.855 30.446 16.857 63.301 30.446 97.704 40.251 12.901 3.612 26.662-1.032 34.575-11.869l73.45-100.456c13.589 0.86 25.802 0.86 39.563 0l73.45 100.456c7.913 10.837 21.674 15.481 34.575 11.869 34.403-9.805 67.258-23.394 97.704-40.251 11.697-6.537 18.061-19.61 15.997-32.855l-19.266-123.334c9.805-8.773 19.094-18.061 27.866-27.694l123.334 19.266c13.073 2.064 26.318-4.3 32.855-15.997 16.857-30.446 30.446-63.301 40.423-97.876 3.612-12.901-1.032-26.662-11.869-34.575l-100.628-73.45c0.516-6.881 0.688-13.417 0.688-19.782s-0.172-12.901-0.688-19.782l100.456-73.45c10.837-7.913 15.481-21.674 11.869-34.575-9.805-34.575-23.394-67.43-40.423-97.876-6.537-11.697-19.438-18.061-32.855-15.997l-123.162 19.094c-8.601-9.805-18.061-19.094-27.866-27.694l19.266-123.334c2.064-13.245-4.3-26.318-15.997-32.855-30.274-16.857-63.129-30.446-97.704-40.251-2.924-0.86-5.848-1.376-8.945-1.376zM337.148 87.372c13.933-6.709 28.554-12.729 43.52-17.889l70.526 96.5c6.709 9.289 18.061 14.277 29.414 12.901 20.642-2.408 42.143-2.408 62.613 0 11.869 1.376 22.706-3.612 29.414-12.901l70.526-96.5c14.965 5.16 29.586 11.181 43.52 17.889l-18.406 118.346c-1.72 11.353 2.752 22.878 11.697 29.93 16.341 13.073 31.307 27.866 44.208 44.208 7.225 8.945 18.406 13.589 29.93 11.697l118.346-18.406c6.709 13.933 12.729 28.554 17.889 43.52l-96.5 70.526c-9.289 6.709-14.277 18.061-12.901 29.414 1.204 10.321 1.892 20.642 1.892 31.307s-0.688 20.986-1.892 31.307c-1.376 11.353 3.612 22.706 12.901 29.414l96.5 70.526c-5.16 14.965-11.181 29.586-17.889 43.52l-118.346-18.406c-11.353-1.72-22.878 2.752-29.93 11.697-12.901 16.169-27.694 31.135-44.208 44.208-8.945 7.225-13.417 18.578-11.697 29.93l18.578 118.518c-13.933 6.709-28.554 12.729-43.52 17.889l-70.526-96.5c-6.709-9.289-17.717-14.449-29.414-12.901-20.47 2.408-41.971 2.408-62.613 0-11.525-1.376-22.706 3.612-29.586 12.901l-70.526 96.5c-14.965-5.16-29.586-11.181-43.52-17.889l18.406-118.346c1.72-11.353-2.752-22.878-11.697-29.93-16.341-12.901-31.135-27.866-44.208-44.208-7.225-8.945-18.578-13.417-29.93-11.697l-118.346 18.406c-6.709-13.933-12.729-28.554-17.889-43.52l96.5-70.526c9.289-6.709 14.277-18.061 12.901-29.586-1.204-10.149-1.892-20.642-1.892-31.135 0-10.665 0.688-20.986 1.892-31.307 1.376-11.525-3.612-22.706-12.901-29.586l-96.5-70.526c5.16-14.965 11.181-29.586 17.889-43.52l118.346 18.406c11.353 1.72 22.878-2.752 29.93-11.697 12.901-16.341 27.694-31.135 44.208-44.208 8.945-7.225 13.589-18.578 11.697-29.93l-18.406-118.346z" />
<glyph unicode="&#xe914;" glyph-name="home" d="M979.792 555.423l-405.609 320.634c-34.919 27.694-89.619 27.694-124.538 0l-405.437-320.634c-13.933-11.009-16.169-31.135-5.332-44.896s30.619-16.169 44.552-5.332l12.557 10.321v-387.548c0-54.873 57.969-95.984 108.713-95.984h639.892c50.228 0 83.255 38.531 83.255 95.984v386.172l11.697-8.945c5.848-4.644 13.073-6.881 20.126-6.881 9.461 0 18.922 4.128 25.286 12.213 11.009 13.761 8.773 33.887-5.16 44.896zM479.919 95.973v177.519c0 8.773 15.997 13.245 31.995 13.245s31.995-4.472 31.995-13.245v-177.347l-63.989-0.172zM864.027 127.968c0-21.158-5.848-31.995-19.266-31.995h-236.175c0 0.516-0.688 0.86-0.688 1.376v176.142c0 37.155-29.93 77.234-95.984 77.234s-95.984-40.079-95.984-77.234v-176.142c0-0.516 0.86-0.86 0.86-1.376h-211.921c-20.126 0-44.724 17.373-44.724 31.995v438.292l328.719 259.569c11.869 9.289 33.199 9.289 44.896 0l330.095-261.117v-436.744z" />
<glyph unicode="&#xe915;" glyph-name="mode-freeze" horiz-adv-x="1025" d="M863.961 222.822c10.957-4.71 13.414-13.414 7.066-26.112-6.349-6.246-11.878-9.421-16.589-9.421h-4.71l-4.813 2.355-161.178 94.822v-120.934c0-12.698-6.349-18.944-18.944-18.944s-18.944 6.246-18.944 18.944v142.234l-189.645 109.056v-220.467l123.29-71.168c11.059-4.71 13.414-13.414 7.066-26.010-4.71-6.349-10.24-9.523-16.589-9.523-4.71 0-7.885 0.819-9.523 2.355l-104.243 59.29v-194.355c0-12.698-6.349-18.944-18.944-18.944s-18.944 6.246-18.944 18.944v194.355l-104.346-59.187c-1.536-1.638-4.71-2.458-9.421-2.458-6.349 0-11.878 3.174-16.589 9.523-6.349 12.595-3.994 21.299 7.066 26.112l123.29 71.168v220.365l-189.645-109.056v-161.178c0-12.698-6.349-18.944-18.944-18.944s-18.944 6.246-18.944 18.944v139.878l-161.28-94.822-4.71-2.355h-4.71c-4.71 0-10.24 3.174-16.589 9.523-6.349 12.595-3.994 21.299 7.168 26.112l158.822 92.467-101.99 59.085c-11.059 4.71-13.414 13.414-7.168 26.112 4.813 11.059 13.414 13.414 26.112 7.066l120.934-71.066 191.898 111.411-192 109.056-120.832-68.813c-1.638-1.536-4.71-2.355-9.523-2.355-6.349 0-11.878 3.174-16.589 9.523-6.349 12.595-3.994 21.299 7.168 26.112l101.888 59.29-158.822 92.365c-11.059 4.71-13.414 13.414-7.168 26.112 6.349 9.421 15.053 11.776 26.112 7.066l161.178-94.822v139.878c0 12.595 6.349 18.944 18.944 18.944s18.944-6.349 18.944-18.944v-161.178l189.645-109.056v220.467l-123.187 71.066c-11.059 4.813-13.414 13.414-7.168 26.112 4.71 11.059 13.414 13.414 26.112 7.066l104.243-59.29v194.458c0.102 12.595 6.349 18.944 19.046 18.944s18.944-6.349 18.944-18.944v-194.355l104.346 59.29c12.595 6.246 21.299 3.891 26.112-7.066 6.246-12.8 3.891-21.402-7.168-26.214l-123.29-71.066v-220.467l189.645 109.056v161.178c0 12.595 6.349 18.944 18.944 18.944s18.944-6.349 18.944-18.944v-139.878l161.178 94.822c11.059 4.71 19.763 2.355 26.112-7.066 6.349-12.698 3.891-21.402-7.066-26.112l-158.822-92.467 101.888-59.29c11.059-4.71 13.414-13.414 7.066-26.010-4.71-6.349-10.24-9.523-16.589-9.523-4.71 0-7.885 0.819-9.523 2.355l-120.832 68.813-192-109.056 192-109.056 120.934 68.71c12.595 6.349 21.299 3.994 26.010-7.066 6.349-12.698 3.994-21.299-7.066-26.112l-101.888-59.187 158.822-92.467z" />
<glyph unicode="&#xe916;" glyph-name="select-off" d="M512 0c-247.039 0-448 200.961-448 448s200.961 448 448 448 448-200.961 448-448-200.961-448-448-448zM512 832c-211.744 0-384-172.256-384-384s172.256-384 384-384 384 172.256 384 384-172.256 384-384 384z" />
<glyph unicode="&#xe917;" glyph-name="round-check" d="M512 894.017c-245.92 0-446.017-200.095-446.017-446.017 0-245.952 200.064-446.017 446.017-446.017s446.017 200.064 446.017 446.017c0 245.92-200.064 446.017-446.017 446.017zM727.231 521.568l-256.224-259.007c-0.064-0.064-0.193-0.096-0.256-0.193-0.096-0.064-0.096-0.193-0.193-0.256-2.049-1.983-4.576-3.2-6.944-4.545-1.183-0.673-2.143-1.696-3.392-2.176-3.839-1.536-7.904-2.336-11.967-2.336-4.096 0-8.224 0.8-12.096 2.4-1.28 0.544-2.303 1.632-3.52 2.303-2.369 1.343-4.832 2.529-6.881 4.545-0.064 0.064-0.096 0.193-0.16 0.256-0.064 0.096-0.193 0.096-0.256 0.193l-126.017 129.503c-12.32 12.673-12.033 32.928 0.64 45.248 12.673 12.287 32.895 12.064 45.248-0.64l103.264-106.112 233.28 235.839c12.416 12.576 32.704 12.704 45.248 0.256 12.516-12.447 12.643-32.703 0.227-45.279z" />
<glyph unicode="&#xe918;" glyph-name="fault" d="M1006.497 122.97c35.027-60.701 1.108-116.82-68.977-116.82h-855.494c-70.096 0-94.134 66-59.096 126.702 134.345 232.691 288.451 485.144 422.806 717.845 35.059 60.69 102.896 60.69 137.955 0 134.334-232.701 288.451-495.035 422.806-727.726zM942.217 40.247c27.542 0 44.739 29.812 30.963 53.649-142.494 246.816-284.999 493.642-427.483 740.447-13.787 23.848-48.191 23.848-61.968 0-142.505-246.805-285.010-493.621-427.504-740.447-13.766-23.826 3.431-53.649 30.984-53.649h855.008zM514.713 224.156c28.535 0 51.664-23.151 51.664-51.664 0-28.566-23.13-51.675-51.664-51.675-28.545 0-51.675 23.109-51.675 51.675 0 28.514 23.13 51.664 51.675 51.664zM566.378 585.828c-6.408-93.268-12.848-186.537-19.287-279.784-2.966-42.976-61.788-42.976-64.744 0-6.44 93.258-12.879 186.516-19.298 279.784 0 28.535 23.13 51.664 51.675 51.664 28.524 0 51.654-23.13 51.654-51.664z" />
<glyph unicode="&#xe919;" glyph-name="telephone" d="M752.882-64c-66.064 0-151.355 44.009-211.274 80.941-80.243 49.445-166.687 117.852-243.415 192.608l-24.639 24.644c-74.76 76.722-143.161 163.172-192.614 243.415-36.923 59.918-80.939 145.209-80.939 211.274 0 70.697 50.555 145.736 72.29 174.713 16.959 22.614 76.214 96.406 126.56 96.406 20.675 0 42.938-13.531 72.198-43.876 25.881-26.831 50.715-60.185 66.988-83.44 21.858-31.222 42.070-63.912 56.924-92.054 24.050-45.562 26.833-65.1 26.833-75.833 0-21.662-11.315-40.45-33.624-55.839-14.69-10.131-32.324-17.76-49.375-25.141-11.502-4.975-29.868-12.915-36.872-18.5 2.445-10.351 13.126-35.348 41.996-77.732 26.9-39.492 61.686-82.291 93.11-114.563 32.266-31.42 75.059-66.21 114.563-93.11 42.371-28.856 67.369-39.543 77.728-41.99 5.579 7.004 13.525 25.364 18.5 36.866 7.375 17.056 15.002 34.691 25.141 49.381 15.389 22.309 34.177 33.618 55.839 33.618 10.734 0 30.271-2.781 75.839-26.827 28.135-14.854 60.832-35.066 92.049-56.924 23.255-16.28 56.607-41.114 83.444-66.988 30.337-29.26 43.868-51.524 43.868-72.198 0-50.346-73.785-109.601-96.399-126.56-28.983-21.735-104.022-72.29-174.719-72.29v0zM340.529 252.721c73.607-71.703 156.273-137.148 232.804-184.31 74.195-45.726 139.641-71.95 179.55-71.95 35.551 0 86.231 21.713 135.58 58.071 21.633 15.944 41.322 33.7 55.441 49.994 13.249 15.297 18.092 25.274 19.321 29.301-5.118 10.998-35.529 45.388-106.504 94.349-27.843 19.204-56.623 36.854-81.050 49.693-30.669 16.124-43.45 18.909-46.377 19.366-1.137-0.78-4.477-3.572-9.556-12.083-5.683-9.531-11.147-22.163-16.427-34.374-6.502-15.038-13.232-30.589-21.484-43.135-13.416-20.408-29.891-30.761-48.959-30.773-0.346 0-0.705 0.006-1.073 0.018-9.277 0.197-37.536 0.797-114.248 53.041-42.346 28.852-88.336 66.255-123.005 100.069l-0.543 0.537c-33.808 34.679-71.211 80.663-100.059 123.005-52.251 76.712-52.855 104.968-53.051 114.252-0.416 19.417 9.834 36.18 30.452 49.832 12.607 8.346 28.285 15.124 43.444 21.686 12.214 5.28 24.84 10.746 34.374 16.423 8.511 5.073 11.311 8.419 12.083 9.556-0.457 2.927-3.242 15.706-19.364 46.377-12.839 24.42-30.491 53.207-49.695 81.043-48.962 70.982-83.352 101.39-94.349 106.508-4.028-1.233-14.006-6.076-29.303-19.325-16.296-14.113-34.050-33.806-49.988-55.441-36.364-49.342-58.071-100.022-58.071-135.574 0-39.907 26.221-105.349 71.944-179.55 47.165-76.532 112.613-159.197 184.31-232.804l23.802-23.802z" />
<glyph unicode="&#xe91a;" glyph-name="quick-wash-15" d="M455.496 149.176c45.384-22.487 95.355-34.304 146.637-34.304 113.029 0 216.392 56.484 277.688 151.204l5.55 11.366 50.422-24.617-5.12-10.465 0.328-0.205c-0.635-1.024-1.27-2.028-1.905-3.031l-80.794-165.478-50.299 24.617 9.4 19.292c-60.396-37.868-131.072-58.675-205.271-58.675-50.749 0-100.352 9.83-146.637 28.795 0 0 0 61.501 0 61.501zM217.293 485.048c13.251 131.953 92.447 247.501 213.279 307.384l24.904-50.237c-101.704-50.36-168.858-146.657-181.842-257.147h-56.34zM766.956 795.525c131.011-62.034 221.86-195.564 221.86-349.921h-56.054c0 182.313-148.173 330.67-330.527 330.772l-3.338-0.389-6.349 55.685 209.428 24.433 6.472-55.747-41.492-4.833zM756.204 389.652h-166.892c-14.049 0-25.498 11.387-25.498 25.559v232.428h50.954v-206.991h141.455l-0.020-50.995zM41.288 127.242v25.723h51.466v203.080l-51.466-12.861v26.419l85.893 21.402v-238.019h51.466v-25.723l-137.359-0.020zM256.184 126.198v30.597c17.039-6.84 33.26-10.26 48.681-10.26 16.916 0 30.228 4.977 39.895 14.95 9.687 9.974 14.52 23.695 14.52 41.206 0 38.605-26.604 57.897-79.811 57.897-6.021 0-12.349-0.41-18.944-1.208v125.174h130.232v-29.901h-100.147v-67.809c33.034 0 58.819-7.598 77.373-22.774s27.812-36.229 27.812-63.119c0-25.027-8.438-44.646-25.293-58.86-16.855-14.193-40.243-21.299-70.164-21.299-12.964 0.020-27.689 1.823-44.155 5.407zM490.455 353.997c-2.232-2.232-10.465-9.339-24.637-21.279-2.99-2.99-5.243-5.222-6.717-6.717l-10.076 10.076c0 1.495 0.737 2.621 2.232 3.359 2.232 1.495 3.359 2.621 3.359 3.359 0.737 0.737 1.475 1.495 2.232 2.232 1.475 1.495 2.601 2.621 3.359 3.359 10.445 14.93 17.531 26.501 21.279 34.714v15.688l17.92 5.591c3.727-2.232 8.192-8.212 13.435-17.92l-3.359-7.844c-2.212-5.96-8.581-14.152-19.026-24.617z" />
<glyph unicode="&#xe91b;" glyph-name="washing-liquid" d="M849.047 330.76l126.523-36.73c26.742-7.756 26.574-20.161-0.118-27.614l-126.405-35.303v-147.187c0-47.96-38.996-86.973-86.939-86.973h-27.262l-8.662-39.013c-6.026-27.144-15.964-27.245-22.192-0.201l-9.048 39.214h-334.999c-47.943 0-86.939 39.013-86.939 86.99v593.030c0 47.96 38.996 86.99 86.939 86.99h90.196v65.704h-239.683c-30.653 0-55.598-24.962-55.598-55.649v-38.022c0-12.137-9.837-21.991-21.974-21.991-12.154 0-21.991 9.854-21.991 21.991v38.022c0 54.927 44.67 99.63 99.563 99.63h239.683v61.558c0 12.154 9.837 21.991 21.991 21.991h164.159c12.154 0 21.991-9.854 21.991-21.991v-171.243h103.827c47.943 0 86.939-39.030 86.939-86.99 0 0 0-346.213 0-346.213zM805.099 343.518v333.455c0 23.703-19.288 43.008-42.991 43.008h-402.163c-23.703 0-42.974-19.288-42.974-43.008v-593.047c0-23.703 19.288-43.008 42.974-43.008h324.86l-28.504 123.551c-6.245 27.027-32.986 55.246-59.711 63.001l-145.29 42.185c-26.742 7.756-26.574 20.161 0.118 27.614l192.747 53.836 50.478 141.732c9.35 26.238 24.71 26.439 34.38 0.285l52.828-142.84 23.25-6.765zM744.599 40.918h17.509c23.703 0 42.991 19.288 42.991 43.008v134.916l-22.41-6.262-38.089-171.663zM494.105 763.963h120.194v149.252h-120.194c0 0 0-149.252 0-149.252zM346.33 376.689v282.305c0 12.154 9.837 21.991 21.991 21.991 12.137 0 21.991-9.837 21.991-21.991v-282.305c0-12.154-9.854-21.991-21.991-21.991s-21.991 9.854-21.991 21.991zM346.33 189.818v115.796c0 12.154 9.837 21.991 21.991 21.991 12.137 0 21.991-9.837 21.991-21.991v-115.796c0-12.154-9.854-21.991-21.991-21.991s-21.991 9.837-21.991 21.991zM81.299 504.471c-22.595 0-43.898 12.305-54.272 31.358-13.564 24.861-7.185 55.816 18.986 91.992 16.82 23.25 36.344 40.91 37.166 41.648l21.437 19.305 12.909-25.801c35.135-70.236 27.312-109.618 14.537-130.3-11.046-17.912-29.562-28.202-50.764-28.202zM81.265 601.533c-14.235-19.809-20.094-36.495-15.645-44.636 2.753-5.053 9.048-8.427 15.679-8.427 4.046 0 9.636 1.276 13.362 7.319 2.887 4.667 9.552 20.883-3.727 58.15-3.223-3.844-6.513-8.024-9.669-12.406zM677.619 250.351l27.598-117.642c4.197-17.928 10.962-17.878 15.058 0.285l26.372 116.954 88.584 24.324c18.079 4.969 17.996 13.027 0.201 18.113l-89.206 25.466-23.418 62.263c-6.564 17.442-16.955 17.324-23.283-0.118l-22.36-61.742-88.568-24.324c-18.063-4.969-17.996-13.027-0.201-18.113l89.222-25.466z" />
<glyph unicode="&#xe91c;" glyph-name="quick-wash-30" d="M778.322 797.184c132.977-63.037 225.198-198.636 225.198-355.328h-56.914c0 185.16-150.589 335.872-335.811 335.872v0.041l-3.154-0.369-6.574 56.545 212.685 24.883 6.697-56.75-42.127-4.895zM819.261 108.564c-61.317-38.441-133.1-59.535-208.445-59.535-77.292 0-151.982 22.467-216.596 64.942l31.437 47.636c55.050-36.434 119.030-55.665 185.16-55.665 115.077 0 220.303 57.61 282.501 154.337l5.263 10.793 51.2-25.068-5.181-10.609 0.225-0.143c-0.471-0.758-0.942-1.516-1.413-2.253l-82.596-168.899-51.098 24.924 9.544 19.538zM767.283 385.044h-169.492c-14.275 0-25.907 11.51-25.907 25.907v236.114h51.732v-210.289h143.667v-51.732zM436.572 794.092l25.19-51.077c-103.916-51.507-172.278-150.487-184.75-263.66h-57.037c12.698 135.004 93.061 253.42 216.596 314.737zM482.877 343.245c-2.232-2.232-10.465-9.339-24.637-21.279l-6.717-6.717-10.076 10.076c0 1.475 0.737 2.601 2.232 3.359 2.232 1.475 3.359 2.601 3.359 3.359l2.232 2.232c1.475 1.475 2.601 2.601 3.359 3.359 10.445 14.93 17.531 26.501 21.279 34.714v15.688l17.92 5.591c3.727-2.232 8.192-8.212 13.435-17.92l-3.359-7.844c-2.212-5.96-8.581-14.172-19.026-24.617zM21.053 132.649v31.334c24.084-9.544 43.028-14.316 56.893-14.316 16.015 0 29.041 4.69 39.096 14.049s15.073 21.484 15.073 36.372c0 35.43-24.822 53.146-74.445 53.146h-13.292v22.651l11.756 0.164c46.551 0 69.837 16.404 69.837 49.234 0 25.784-15.34 38.666-45.998 38.666-16.814 0-35.308-4.71-55.521-14.131v29.307c19.866 6.697 39.178 10.056 57.917 10.056 51.548 0 77.332-19.476 77.332-58.429 0-29.635-17.551-50.77-52.634-63.365 40.653-9.421 60.989-31.683 60.989-66.765 0-23.736-7.844-42.353-23.511-55.869s-37.192-20.275-64.553-20.275c-15.565 0-35.205 2.724-58.941 8.172zM315.556 124.477c-26.010 0-47.043 12.227-63.119 36.7s-24.105 56.402-24.105 95.805c0 39.752 8.090 71.721 24.269 95.908s37.499 36.291 63.959 36.291 47.78-12.104 63.959-36.291 24.269-55.992 24.269-95.396c0-40.428-8.090-72.704-24.269-96.829-16.159-24.125-37.806-36.188-64.963-36.188zM315.904 149.688c35.553 0 53.309 36.106 53.309 108.339 0 70.636-17.551 105.943-52.634 105.943-34.98 0-52.47-35.656-52.47-106.967 0.020-71.557 17.265-107.315 51.794-107.315z" />
<glyph unicode="&#xe91d;" glyph-name="wash-sterilization" d="M403.549 197.213c38.121 0 69.376-31.092 69.446-69.213-0.047-38.051-31.372-69.26-69.446-69.26-38.284 0-69.329 31.092-69.446 69.26 0.14 38.214 31.069 69.213 69.446 69.213zM653.638 149.201c-30.836 0-55.808 24.925-55.855 55.855 0.047 30.767 25.135 55.901 55.855 56.017 31.046-0.116 56.227-25.251 56.297-56.017-0.047-30.836-25.181-55.855-56.297-55.855zM408.925 245.341c0.163 65.21 53.178 118.272 118.505 118.388 45.335 0 84.061-25.786 103.889-63.185-43.427-10.193-75.892-49.012-76.009-95.511 0-24.925 9.635-47.43 24.972-64.721-15.942-8.215-33.722-13.242-52.852-13.242-4.003 0-8.169 1.257-12.218 1.908-0.559 59.020-47.151 106.729-105.565 109.964-0.116 2.141-0.721 4.282-0.721 6.4zM291.793 128c0-61.719 50.060-111.663 111.756-111.756 46.825 0.116 86.9 29.021 103.494 70.097 6.679-0.977 13.405-1.536 20.364-1.536 33.885 0 65.001 11.008 90.903 28.905 11.008-4.329 22.831-6.842 35.328-6.842 54.481 0 98.56 43.916 98.56 98.188 0 45.777-31.651 84.061-74.193 94.836-22.458 61.719-81.105 106.007-150.598 106.124-88.646-0.116-160.884-72.006-160.931-160.675 0-4.166 0.931-8.169 1.373-12.218-44.079-14.941-76.055-56.111-76.055-105.123zM536.39 320.419c6.074 0 12.311-0.559 18.618-1.908l6.191 28.858c-8.332 1.815-16.64 2.583-24.809 2.583-54.598 0-103.54-38.051-115.479-93.37l28.858-6.191c8.867 41.495 45.824 70.028 86.621 70.028zM449.28 566.225c4.655 21.783 24.204 37.027 45.824 37.027l9.751-1.094 6.074 28.905c-5.306 1.14-10.566 1.699-15.825 1.699-35.328 0-67.025-24.483-74.752-60.346l28.928-6.191zM364.847 124.928c4.608 21.9 24.157 37.027 45.777 37.027l9.751-1.094 6.144 29.021c-5.306 1.047-10.612 1.583-15.872 1.583-35.328 0-67.025-24.483-74.636-60.463l28.835-6.074zM487.308 638.65v-0.116c38.284 0 69.446-31.092 69.492-69.213-0.047-38.051-31.209-69.167-69.492-69.167-38.167 0-69.329 31.092-69.446 69.167 0.116 38.097 31.209 69.213 69.446 69.329zM487.308 457.868v0c61.719 0 111.756 49.943 111.756 111.43 0 61.603-50.060 111.5-111.756 111.5-61.649 0-111.756-49.897-111.756-111.5-0.023-61.487 50.083-111.43 111.756-111.43zM944.407 51.555l-294.656 696.273v203.962h-56.134v-215.412l300.125-708.98 3.724-13.684-0.047-0.977c-0.977-0.652-6.074-2.909-18.060-2.909h-758.365c-7.401 0-12.311 0.768-15.174 1.652l-3.002 1.257-0.116 1.047 1.908 9.309 1.373 3.561 0.442 0.768h-0.047l0.605 1.047 299.683 707.91v215.412h-56.134v-203.985l-294.819-696.367c-2.42-4.934-8.82-18.060-9.146-37.679-0.279-12.707 4.282-30.557 18.618-42.985 14.289-12.265 33.233-17.082 55.808-17.082h758.342c22.551 0 41.402 4.817 55.645 17.082 14.406 12.428 18.944 30.278 18.665 42.938-0.372 19.665-6.772 32.908-9.239 37.841z" />
<glyph unicode="&#xe91e;" glyph-name="return-top" d="M915.763 848.384h-806.528c-26.675 0-48.333 20.787-48.333 46.336 0 25.626 21.658 46.336 48.333 46.336h806.528c26.675 0 48.358-20.71 48.358-46.336-0.026-25.549-21.683-46.336-48.358-46.336v0zM870.093 319.795c-13.312 0-25.472 5.171-34.202 13.542l-275.866 264.243v-613.811c0-25.549-21.606-46.285-48.282-46.285-26.701 0-48.333 20.736-48.333 46.285v612.352l-273.408-262.016c-8.832-8.832-21.248-14.336-35.046-14.336-26.803 0-48.538 20.838-48.538 46.541 0 12.774 5.402 24.346 14.054 32.717l356.838 342.093c8.858 8.934 21.274 14.541 35.149 14.541 13.619 0 25.958-5.453 34.739-14.131l357.248-342.477c8.73-8.371 14.131-19.968 14.131-32.768 0-25.677-21.709-46.49-48.486-46.49v0z" />
<glyph unicode="&#xe91f;" glyph-name="clothes-wool" d="M425.844 353.652v-5.469c51.316-16.663 79.011-16.663 165.027-16.663h3.631c-10.915 73.449-31.116 120.995-62.231 166.796l-1.885 3.863c-36.561-31.116-82.525-84.41-104.541-148.527zM220.532 659.875v-5.679c1.815-25.647 3.631-41.984 12.847-73.216v3.7c20.131 155.881 168.681 273.292 320.791 273.292 106.449 0 220.16-53.201 280.623-163.212l1.932-5.585-5.585 5.585c-31.185 25.763-49.548 47.663-95.348 75.217-49.548 27.485-100.864 42.147-152.227 42.147-172.311 0-309.993-133.795-326.423-299.008 3.631-14.801 14.801-29.347 20.247-36.701l1.769 5.585c14.685 163.095 170.543 295.191 328.308 295.191 104.448 0 218.112-55.063 280.576-164.98l3.631-5.469-9.169 5.469c-7.331 9.1-7.331 9.1-29.184 27.532-18.479 18.385-29.463 31.116-62.464 49.431-47.616 27.695-99.095 40.448-153.949 40.448-172.497 0-308.271-126.627-328.308-297.193l20.015-23.552v3.421c23.948 157.696 168.844 284.113 333.871 284.113 56.879 0 109.917-14.499 155.881-43.869 47.569-29.347 122.927-100.911 122.927-126.697h-2.001c-5.469 0-91.601 122.996-253.044 122.996-161.396 0-291.561-115.549-324.561-267.66 1.769 0 16.547-10.985 25.716-14.732l1.815 7.401c42.147 155.695 181.527 241.897 309.923 241.897 188.881 0 320.861-124.649 320.861-316.975 0-93.533-31.116-176.175-86.179-234.892-51.363-53.085-157.743-100.748-252.928-100.748l9.053 3.747c76.963 25.553 75.217 25.553 89.879 32.884 42.1 22.016 77.079 44.032 102.633 71.564 58.833 60.463 86.132 139.427 86.132 231.028 0 97.117-29.3 166.865-91.532 236.311l-27.695 11.101-30.999 7.447 1.769-1.885c67.933-60.463 108.265-155.881 108.265-243.875 0-97.117-34.863-185.111-88.064-243.759-43.916-51.596-137.449-106.263-225.513-106.263-1.885 0-27.648 1.699-33.001 1.699l33.001 10.985c75.148 20.131 130.211 51.247 170.449 93.58 56.879 58.647 89.879 146.665 89.879 241.897 0 99.328-45.731 190.86-124.649 258.444h-42.263l3.7-1.699c78.895-65.885 119.249-157.417 119.249-260.445 0-95.116-29.463-179.549-86.132-242.013-49.664-53.085-152.297-100.748-249.297-100.748h-5.585l7.284 3.747c3.584 0 23.831 5.585 31.185 7.215 71.447 21.9 122.88 53.248 165.097 95.465 54.947 60.3 86.132 139.311 84.201 236.311 0 108.311-36.585 185.228-117.295 258.56l-14.685-1.769-18.316-5.469 1.769-3.747c71.564-64.116 111.965-163.095 111.965-245.713 0-188.649-128.396-346.345-311.761-346.345-9.263 0-14.732 1.699-16.617 1.699h-7.284l7.284 3.747c73.495 21.783 75.217 20.131 91.881 27.369 38.516 20.084 73.169 45.731 100.748 77.079 51.433 56.669 82.479 144.78 80.663 236.428 0 86.365-33.001 161.443-97.117 230.912l-25.763-12.8 1.815-3.631c55.063-65.885 78.964-130.001 78.964-216.343 1.769-212.527-153.996-344.46-332.009-346.577-168.611 0-311.808 165.26-311.808 322.909-1.885 34.863 3.747 78.801 12.8 110.033 12.963 42.217 44.079 98.863 45.964 98.863h1.815c0-12.916-31.116-69.679-31.116-164.98 0-166.679 137.449-322.676 313.577-322.676 44.032 0 75.101 7.331 120.995 21.9l42.217 40.332-5.585-1.815c-43.985-16.431-88.064-25.553-130.211-25.553-166.796 0-324.561 152.111-324.561 328.145 0 33.001 5.516 73.565 14.685 106.333 12.8 42.217 43.985 99.095 47.663 99.095 0-16.547-29.347-62.464-29.347-157.696 1.769-190.743 146.665-326.54 315.439-326.54 55.017 0 101.027 11.148 152.227 34.932 7.215 14.615 7.215 14.615 9.216 14.615l7.215 14.801-3.631-1.769c-44.148-20.364-100.864-31.116-143.127-31.116-168.564 0-319.023 150.132-320.791 330.007 0 34.653 5.585 75.101 14.685 106.217 10.868 36.515 40.332 98.863 42.1 98.863 0-16.431-23.831-58.531-23.831-153.763 0-181.411 130.281-333.777 317.277-333.777 45.917 0 88.017 9.1 133.795 27.532 9.332 23.785 9.332 25.484 9.332 29.231l-5.585-1.652c-38.4-14.895-76.963-22.249-119.18-22.249-163.165 0-319.139 152.343-319.139 337.455 0 36.631 5.585 75.217 14.801 111.849 3.631 9.263 30.999 91.695 42.1 91.695h1.885c0-16.337-29.417-62.231-27.415-157.812 0-192.396 144.849-335.523 319.139-335.523 36.515 0 64 5.679 98.769 14.895l1.932 12.753v14.685l-5.585-1.885c-23.715-3.7-43.916-5.469-64.047-5.469-185.297 0-335.756 148.527-335.756 351.907 0 163.328 135.796 300.893 311.808 302.639 106.449 0 221.975-55.017 276.992-159.581l1.769-3.747-7.284 7.564c-9.169 7.215-9.169 7.215-31.116 27.299-18.385 16.547-31.279 27.695-64.163 45.917-47.779 25.763-99.212 36.631-150.412 36.631-146.804 0.093-262.423-87.808-308.154-230.889z" />
<glyph unicode="&#xe920;" glyph-name="automoatic" d="M200.212 514.048l-12.111 31.842h-103.168l-12.111-32.532c-4.726-12.702-8.763-21.268-12.111-25.698s-8.822-6.656-16.443-6.656c-6.459 0-12.17 2.363-17.132 7.089s-7.444 10.102-7.444 16.108c0 3.466 0.571 7.030 1.733 10.732s3.052 8.822 5.711 15.399l64.906 164.766c1.851 4.726 4.076 10.417 6.656 17.054s5.356 12.15 8.31 16.522 6.814 7.936 11.599 10.654 10.693 4.057 17.743 4.057c7.148 0 13.135-1.359 17.92-4.076s8.645-6.203 11.599-10.476c2.954-4.273 5.415-8.862 7.444-13.765s4.588-11.461 7.7-19.653l66.284-163.722c5.199-12.465 7.798-21.524 7.798-27.175 0-5.888-2.462-11.284-7.365-16.187s-10.811-7.365-17.743-7.365c-4.037 0-7.503 0.729-10.378 2.166s-5.317 3.407-7.266 5.888c-1.969 2.481-4.076 6.282-6.321 11.422s-4.194 9.689-5.809 13.607zM98.442 584.507h75.815l-38.242 104.704-37.573-104.704zM279.65 590.218v122.014c0 10.378 2.343 18.176 7.010 23.375s10.811 7.778 18.432 7.778c7.956 0 14.277-2.599 18.944-7.798s7.010-12.977 7.010-23.375v-124.79c0-14.198 1.595-26.053 4.766-35.564s8.802-16.896 16.876-22.154c8.074-5.258 19.377-7.877 33.93-7.877 20.086 0 34.265 5.337 42.575 16.010s12.465 26.86 12.465 48.542v125.834c0 10.496 2.304 18.314 6.932 23.454s10.772 7.719 18.511 7.719 13.982-2.56 18.786-7.7c4.805-5.14 7.188-12.958 7.188-23.454v-122.014c0-19.85-1.93-36.411-5.79-49.664s-11.166-24.93-21.898-34.954c-9.236-8.546-19.968-14.769-32.197-18.688s-26.545-5.888-42.929-5.888c-19.495 0-36.293 2.107-50.373 6.321s-25.561 10.732-34.442 19.554c-8.881 8.822-15.399 20.126-19.554 33.93s-6.242 30.228-6.242 49.388zM713.393 696.655h-56.084v-184.32c0-10.614-2.363-18.491-7.089-23.631s-10.85-7.7-18.353-7.7c-7.621 0-13.824 2.599-18.609 7.798s-7.188 13.036-7.188 23.532v184.32h-56.064c-8.763 0-15.281 1.93-19.554 5.79s-6.4 8.98-6.4 15.321c0 6.577 2.225 11.776 6.656 15.577s10.87 5.711 19.298 5.711h163.387c8.881 0 15.498-1.969 19.81-5.888s6.498-9.058 6.498-15.399c0-6.341-2.186-11.461-6.577-15.321s-10.969-5.79-19.732-5.79zM877.115 743.385c26.309 0 48.896-5.337 67.761-16.010s33.142-25.836 42.831-45.529 14.533-42.772 14.533-69.317c0-19.614-2.658-37.435-7.956-53.484s-13.273-29.952-23.887-41.708-23.65-20.775-39.109-26.998c-15.458-6.223-33.182-9.354-53.13-9.354-19.85 0-37.612 3.21-53.307 9.61s-28.79 15.439-39.286 27.077c-10.496 11.638-18.432 25.679-23.788 42.063s-8.054 34.087-8.054 53.13c0 19.495 2.796 37.376 8.389 53.662s13.706 30.11 24.32 41.531c10.614 11.422 23.532 20.165 38.774 26.23s32.532 9.098 51.909 9.098zM950.154 612.884c0 18.57-2.993 34.678-8.999 48.286s-14.572 23.906-25.698 30.897-23.906 10.476-38.341 10.476c-10.26 0-19.751-1.93-28.475-5.79s-16.207-9.492-22.508-16.876-11.244-16.817-14.887-28.298c-3.643-11.481-5.455-24.379-5.455-38.676 0-14.415 1.812-27.471 5.455-39.109s8.763-21.327 15.399-28.987c6.636-7.66 14.257-13.41 22.843-17.231s18.038-5.711 28.298-5.711c13.154 0 25.246 3.289 36.254 9.866s19.791 16.738 26.309 30.464 9.807 30.622 9.807 50.688zM952.95 286.503l-833.89 0.945 117.268-101.179c11.126-9.59 12.347-26.388 2.757-37.494-9.59-11.126-26.388-12.347-37.494-2.757l-156.574 135.089c-26.88 23.198-13.292 59.609 22.233 59.569l885.76-1.024c14.69-0.020 26.565-11.934 26.545-26.624-0.020-14.671-11.934-26.545-26.604-26.526z" />
<glyph unicode="&#xe921;" glyph-name="border" d="M289.477 637.854v-277.839c0-7.207 5.77-12.977 12.82-12.977h434.294c7.050 0 12.82 5.79 12.82 12.977v277.839c0 7.207-5.77 12.977-12.82 12.977h-434.294c-7.050 0-12.82-5.79-12.82-12.977zM236.308 637.854c0 36.51 29.538 66.146 65.989 66.146h434.294c36.47 0 65.989-29.637 65.989-66.146v-277.839c0-36.51-29.538-66.146-65.989-66.146h-434.294c-36.47 0-65.989 29.637-65.989 66.146v277.839zM854.331 141.292h-192.748c2.265-1.556 4.608-3.17 6.991-4.785 2.462-1.674 4.982-3.387 7.542-5.12 15.911-10.752 32.985-22.016 50.058-33.103 5.986-3.879 11.54-7.463 16.522-10.654 2.974-1.91 5.1-3.269 6.223-3.978 12.386-7.877 16.069-24.3 8.192-36.687s-24.3-16.069-36.687-8.192c-1.182 0.748-3.367 2.146-6.4 4.096-5.061 3.249-10.693 6.873-16.758 10.811-17.349 11.244-34.698 22.705-50.905 33.674-2.619 1.772-5.199 3.525-7.719 5.238-22.508 15.36-40.369 28.18-52.46 37.888-7.897 6.321-13.47 11.382-17.27 16.089-5.179 6.4-8.231 12.268-7.601 21.819 1.182 18.412 15.084 26.073 28.751 26.073h264.33c26.309 0 47.911 21.918 47.911 49.073v515.761c0 27.215-21.543 49.073-47.931 49.073h-674.501c-26.407 0-47.931-21.878-47.931-49.113v-271.242c0-14.69-11.894-26.585-26.585-26.585s-26.585 11.914-26.585 26.585v271.242c0 56.418 45.154 102.282 101.1 102.282h674.422c55.946 0 101.1-45.844 101.1-102.242v-515.761c0.020-56.359-45.214-102.242-101.061-102.242z" />
<glyph unicode="&#xe922;" glyph-name="mopping" d="M606.169 417.497c-170.063 108.879-328.369-45.43-328.369-45.43-76.761-79.911-170.693-49.723-170.693-49.723 84.539-171.54 195.486-207.262 296.271-184.222 25.62 5.849 56.615 29.302 85.169 46.454s49.566 40.094 60.711 41.807c0-53.622-114.018-121.738-120.734-121.738s141.824-68.352 231.424 56.93c89.6 125.302-53.78 261.967-53.78 255.921zM247.808 104.645c-71.050 31.271-130.914 93.164-177.881 188.436l-22.804 46.277c-19.279 39.109-1.378 60.219 40.369 47.065l48.601-15.34c28.239-4.923 59.943 1.634 92.337 30.543 3.21 2.855 6.4 5.927 9.767 9.452 12.958 13.332 34.777 31.586 64.394 49.605 99.013 60.278 211.358 71.66 321.989 0.827l2.225-1.418 2.068-1.615c14.533-11.382 26.348-15.281 46.375-40.96 63.685-81.625 89.935-190.287 26.21-279.394-50.708-70.912-120.497-100.726-195.604-97.497-25.6 1.103-50.097 6.046-71.759 13.391-8.428 2.855-16.128 6.006-22.351 9.078-3.958 1.969-7.444 3.919-10.929 6.38-3.722 2.225-4.293 2.58-11.914 12.17-48.699-4.037-94.366 2.422-141.095 23.001zM599.158 502.39l0.965 0.433c-0.335-0.138-0.65-0.276-0.965-0.433zM724.913 508.101l196.47 234.142c4.962 5.908 7.582 21.366-10.713 36.706s-34.166 11.126-39.188 5.159l-196.51-234.201c6.538-3.249 13.056-7.188 19.554-11.855 12.564-9.039 22.607-19.141 30.385-29.952zM745.925 451.801c3.643-39.188-12.032-79.616-38.479-108.958l-30.031-33.28-14.809 42.299c-1.162 3.308-3.978 9.945-8.625 18.786-7.897 15.025-17.92 30.090-30.169 44.071-23.138 26.407-51.377 45.765-85.307 55.513l-39.857 11.461 27.038 31.429c5.573 6.479 14.927 15.321 27.668 24.103 20.5 14.119 42.516 22.843 65.182 24.379l214.055 255.114c12.091 14.415 29.42 23.414 48.187 25.009s48.482-13.627 62.917-25.777c30.11-25.226 42.85-77.292 17.723-107.323l-215.493-256.827zM600.103 502.823l-25.679-19.495c24.517-13.489 56.891-32.276 75.52-53.524 9.905-11.303 30.129-17.487 37.12-28.298 26.644 37.455 4.155 73.452-23.572 93.381-21.721 15.616-42.594 16.994-63.39 7.936z" />
<glyph unicode="&#xe923;" glyph-name="rechang" d="M177.29 270.631h-111.38c-14.651 0-26.526-11.796-26.526-26.585 0-14.69 11.894-26.585 26.526-26.585h111.36v-124.357c0-21.721 17.664-39.326 39.522-39.326h127.035c91.983 0 166.558 74.279 166.558 165.947v96.788c1.792-0.394 3.663-0.591 5.593-0.591h156.849c170.654 0 311.198 111.813 311.198 253.125 0 141.332-140.505 253.105-311.217 253.105h-451.269c-14.631 0-26.506-11.914-26.506-26.585 0-14.69 11.855-26.585 26.506-26.585h451.289c143.793 0 258.206-91.038 258.206-199.936 0-108.859-114.471-199.936-258.206-199.936h-156.849c-1.91 0-3.781-0.197-5.593-0.591v78.69c0 91.648-74.752 165.947-166.558 165.947h-127.035c-21.819 0-39.522-17.664-39.522-39.326v-125.952h-111.36c-14.651-0.020-26.526-11.815-26.526-26.604 0-14.69 11.894-26.585 26.526-26.585h111.36l0.020-124.062zM343.828 560.148c62.503 0 113.369-50.649 113.369-112.935v-227.505c0-62.385-50.747-112.935-113.369-112.935h-113.369v453.376h113.369z" />
<glyph unicode="&#xe924;" glyph-name="down-jackets" d="M465.124 830.066c9.512 12.265 20.389 18 31.357 18 10.877 0 21.732-5.712 31.266-18 9.307-12.265 15.861-30.697 15.815-51.382-0.41-20.958-5.348-27.147-11.241-31.835-6.076-4.619-18.773-7.805-35.84-7.691-17.158-0.114-29.901 3.072-35.999 7.691-5.78 4.688-10.763 10.763-11.173 31.835-0.046 20.685 6.508 39.117 15.815 51.382zM434.426 711.122c18.933-13.517 40.892-16.065 62.054-16.179 21.072 0.114 42.962 2.662 61.941 16.179 19.183 13.722 29.742 38.275 29.332 67.561-0.046 29.855-8.988 57.162-24.758 78.029-15.542 20.799-39.208 35.635-66.514 35.635-27.352 0-51.086-14.814-66.674-35.635-15.701-20.867-24.644-48.265-24.713-78.029-0.41-29.286 10.081-53.84 29.332-67.561zM706.128 62.384c0 0-82.694 16.43-108.18 84.719l-18.978-26.101c0 0 25.486-61.781 114.483-87.859l12.675 29.241zM408.075 147.103c-25.372-68.244-108.089-84.719-108.089-84.719l12.698-29.241c88.997 26.101 114.483 87.859 114.483 87.859l-19.092 26.101zM842.57 183.676l-3.163-7.896 2.23-8.26c0.205-0.569 3.686-14.609 3.595-35.521 0-23.142-4.892-53.931-21.641-85.038l-64.922 24.713c0.205 4.847 0.887 9.83 0.887 14.609-0.046 46.239-8.169 87.268-13.881 110.842 9.83 20.503 12.060 43.167 12.265 66.833-0.114 52.543-12.948 109.705-17.271 127.795 7.487 22.824 10.604 47.127 10.672 70.997 0 23.188-2.344 45.83-5.257 65.855 1.707-1.934 3.436-3.595 5.097-5.621 26.692-31.357 50.358-72.294 53.476-117.487l0.523-7.122 4.164-5.871 0.319-0.41c4.369-5.871 45.625-70.315 45.193-142.245-0.023-21.709-3.55-43.804-12.288-66.173v0zM291.021 15.353l-2.185 0.569c-7.646 22.255-11.401 46.353-11.332 70.11 0 31.107 4.938 60.848 9.99 82.603 2.025 8.852 3.959 15.861 5.666 21.641 23.62-11.696 60.848-25.896 104.129-26.101 25.85 0 53.68 5.78 80.828 20.23v-189.804c-61.121 0.728-111.252 6.599-145.954 12.493-17.954 3.072-31.835 6.121-41.142 8.26v0zM173.943 46.938c-16.748 31.107-21.641 62.009-21.641 85.151 0 11.173 0.933 20.503 1.934 26.692l1.206 7.031 0.41 1.661v0.159l2.23 8.169-3.163 7.896c-8.784 22.255-12.22 44.464-12.265 66.059 0 38.389 11.401 74.638 22.938 100.966 5.825 13.221 11.651 23.871 15.974 31.198l5.097 8.124 1.252 2.025 0.25 0.41 4.21 5.871 0.523 7.122c3.163 45.193 26.783 86.13 53.476 117.487 0.933 1.138 1.82 1.98 2.753 3.072-4.483-25.077-7.964-53.202-8.010-80.782 0.046-25.896 3.026-51.382 12.902-74.433-5.712-24.599-12.789-62.418-12.857-98.782 0.114-21.845 2.662-43.281 11.651-62.464-6.030-19.092-19.456-67.561-19.547-123.54 0-5.348 0.364-10.877 0.614-16.338l-59.938-22.756zM430.421 860.244c8.943 13.312 19.456 24.075 30.265 31.061 10.877 7.122 21.641 10.604 33.132 10.604 22.574 0.364 48.469-15.337 68.813-42.803 20.275-26.897 33.496-63.67 33.291-95.96 0-22.687-5.302-39.208-13.517-51.541l-4.255-6.508v-56.639c-23.984-12.857-48.538-17.886-72.135-17.886-28.035-0.114-54.363 6.599-73.341 13.426-5.257 1.82-9.83 3.641-13.881 5.348v55.66l-4.255 6.508c-8.169 12.425-13.426 28.968-13.426 51.655-0.182 33.269 11.196 70.337 29.309 97.075v0zM683.19 579.077v0l0.478-1.98c3.163-11.537 16.179-64.694 16.065-114.369 0.114-23.256-2.958-45.511-9.466-61.417l-3.231-7.851 0.774-2.913c-24.599-16.179-49.562-22.255-73.546-22.255-29.332-0.114-56.957 8.738-77.073 17.795-5.666 2.435-10.513 4.847-14.814 7.168v194.059c25.805 1.934 53.111 9.148 79.622 24.075l80.942-31.425 0.25-0.887zM522.377 188.341c23.666-11.173 59.096-23.984 100.079-24.189 25.805 0 53.635 5.78 80.714 20.23 5.211-21.732 12.22-58.618 12.22-98.145 0-23.552-3.026-47.65-9.421-69.791-67.038-13.722-128.774-19.911-183.615-21.436l0.023 193.331zM257.161 200.31v0zM694.841 359.941c5.097-24.713 11.605-63.192 11.492-96.006 0.319-21.322-3.482-39.845-7.76-46.353l1.252-0.683c-25.805-16.794-52.11-23.188-77.392-23.188-30.538-0.114-59.233 8.852-80.1 17.886-8.124 3.482-14.609 6.804-19.979 9.785v139.036c22.824-10.559 55.137-21.527 91.91-21.732 25.714-0.023 53.635 6.007 80.577 21.254v0zM395.15 611.48c16.589-7.646 46.239-19.046 82.967-23.415v-191.556c-27.261-20.639-55.023-28.149-81.715-28.24-29.377-0.114-57.003 8.738-77.141 17.795-7.76 3.436-13.881 6.713-19.137 9.626-4.619 12.789-7.532 29.855-7.441 49.562 0 32.722 6.144 69.905 12.493 98.463 3.163 14.199 6.303 26.419 8.624 34.953l0.41 1.411 80.942 31.403zM295.708 222.156l-1.206 1.934-1.092-0.683c-0.046 0-0.114 0.114-0.159 0.114l1.252 0.774c-5.621 8.329-9.353 26.624-9.148 47.741 0 25.236 4.369 54.044 8.943 76.095 1.138 5.666 2.344 10.877 3.391 15.542 22.938-11.401 58.095-24.804 98.714-25.008 26.101 0 54.454 6.030 81.715 21.732v-141.153c-26.943-18.523-54.5-25.441-80.828-25.532-30.538-0.114-59.187 8.852-80.1 17.886-8.852 3.755-15.861 7.441-21.481 10.559v0zM906.49 249.781c-0.523 83.536-40.164 149.527-51.86 167.435-6.508 57.116-34.793 104.448-64.080 139.082-24.758 29.286-49.562 49.675-65.013 61.053l-0.523 1.616-3.846 1.502c-1.82 1.343-4.255 3.163-5.621 4.119l-0.978-1.57-84.833 32.927v36.659c11.082 20.23 17.886 43.691 17.795 70.519-0.114 45.511-16.862 91.022-43.531 126.862-26.578 35.567-64.558 63.192-110.16 63.511-22.574 0.114-43.645-7.327-61.372-18.978-26.692-17.59-46.922-44.214-61.053-74.16-13.995-30.174-21.891-63.92-21.891-97.212-0.114-26.829 6.667-50.29 17.636-70.519v-36.659l-84.309-32.745-0.887 1.343c-1.297-0.842-3.527-2.549-5.143-3.686l-4.688-1.82-0.614-2.025c-15.406-11.492-40.095-31.79-64.603-60.757-29.241-34.634-57.481-81.874-64.034-138.968-11.583-17.795-51.382-83.9-51.86-167.572 0-24.28 4.369-50.199 13.426-76.208-1.616-8.055-3.8-22.255-3.8-41.461-0.046-34.543 7.441-84.105 40.778-131.846l11.446-16.589 88.587 33.746c2.435-9.466 5.302-18.819 9.148-28.035l3.959-9.785 10.194-3.026c1.502-0.523 85.675-25.441 218.499-26.328l28.558 0.114c64.080 1.092 137.944 8.010 218.772 25.805l18 3.959-0.774 21.436c1.707 5.78 2.662 11.696 3.891 17.476l92.888-35.362 11.605 16.589c33.178 47.741 40.732 97.212 40.619 131.755 0 19.183-2.139 33.382-3.755 41.552 9.057 26.010 13.426 51.905 13.426 76.254v0z" />
<glyph unicode="&#xe925;" glyph-name="ai" d="M541.891 935.222h-83.7c-193.438 0-350.11-156.77-350.11-350.257v-51.371l-104.814-245.004c-4.803-11.093-4.267-23.918 1.341-34.718 5.705-10.728 15.945-18.383 27.867-20.797l101.327-20.261v-75.191c0-33.426 6.193-62.683 18.115-87.138 17.725-37.035 48.079-61.001 78.409-73.63 30.452-12.995 61.172-16.433 87.259-16.482 24.747 0.098 44.837 3.121 59.075 6.851 99.328 26.453 341.48 94.11 341.528 94.159l-21.772 77.775v0.049c-0.098-0.049-60.514-16.872-133.339-37.083-72.875-20.212-158.135-43.715-207.165-56.808-5.559-1.512-21.187-4.145-38.327-4.096-24.747-0.171-52.809 5.388-70.754 18.334-9.045 6.461-16.335 14.385-22.211 26.185-5.705 11.849-9.972 28.306-9.972 51.907v108.276c0 19.237-13.58 35.889-32.5 39.619l-84.992 17.091 88.552 206.799c2.097 4.901 3.243 10.508 3.243 15.896v59.66c0 74.581 30.062 141.678 78.848 190.513 48.835 48.835 115.883 78.897 190.415 78.897h83.7c74.484 0 141.531-30.062 190.415-78.897 26.405-26.453 46.738-58.636 60.318-94.159h85.65c-41.886 146.505-176.518 253.879-336.408 253.879zM691.98 519.046h-1.122l-47.762-166.741h90.283l-41.399 166.741zM751.762 284.404h-126.001l-27.55-89.673h-90.868l133.486 401.31h103.473l128.707-401.31h-96.622l-24.625 89.673zM914.432 194.755h94.306v401.262h-94.306z" />
<glyph unicode="&#xe926;" glyph-name="tube-self-cleaning" d="M673.117 545.4c-47.801 100.613-57.518 203.711-57.518 269.181 0 15.055 0.523 27.234 1.155 37.648 77.388-16.689 146.563-55.013 200.486-109.023 73.314-73.314 118.544-174.341 118.544-286.241 0-51.81-10.087-101.027-27.975-146.367-121.224 60.307-192.49 146.476-234.692 234.801zM849.811 208.177c-66.516 39.631-186.455 96.321-332.037 96.517h-0.414c-95.167 0.044-200.748-25.36-305.849-95.733-14.794 18.933-27.561 39.326-38.803 60.808 131.137 64.839 210.879 160.114 256.327 256.261 51.984 109.176 61.919 218.722 61.919 288.419 0 17.996-0.741 32.681-1.569 44.751 13.704 1.525 27.604 2.658 41.461 2.658 14.118 0 27.822-1.155 41.57-2.658-0.893-11.983-1.612-26.559-1.612-44.664 0-69.697 10.087-179.2 61.919-288.376 45.535-96.256 125.189-191.488 256.632-256.436-11.46-21.7-24.532-42.354-39.544-61.549zM244.605 170.594v0l-3.704 4.14c96.43 63.052 190.813 85.188 276.872 85.275h0.632c128.153 0.044 237.96-49.566 301.71-86.277l-2.985-3.181c-73.314-73.249-174.341-118.544-286.284-118.544-111.79-0.022-212.818 45.317-286.241 118.588zM530.846 929.509c-94.121 0-181.662-27.931-255.325-75.406l-4.183-2.614 34.467-59.131 4.597 2.919c40.633 26.559 85.755 46.429 134.602 57.104 0.675-10.501 1.307-22.702 1.307-37.91 0-65.514-9.674-168.677-57.671-269.181-42.093-88.26-113.25-174.429-234.518-234.67-17.778 45.339-28.084 94.535-28.084 146.367 0 9.674 0.828 19.303 1.525 29.021l0.414 5.599h-67.845l-0.305-4.859c-0.479-9.674-1.525-19.5-1.525-29.761 0-261.076 211.51-472.652 472.543-472.652 138.937 0 263.386 60.242 349.816 155.517 7.734 8.475 15.316 17.364 22.441 26.515 62.747 80.221 100.396 180.878 100.396 290.62-0.022 261.011-211.619 472.522-472.652 472.522zM530.955 377.191c-35.775 0-64.425 28.912-64.425 64.425 0 35.666 28.65 64.468 64.425 64.468 35.557-0.044 64.316-28.912 64.425-64.468-0.109-35.513-28.868-64.316-64.425-64.425zM530.955 535.737c-52.071-0.109-93.968-42.202-94.077-94.121 0.109-51.875 41.984-93.903 94.077-94.012 51.984 0 94.077 42.049 94.077 94.012 0 52.028-42.093 94.055-94.077 94.121zM175.954 776.094c19.5-41.2 50.154-65.362 78.957-79.523-29.957-15.164-59.457-40.481-78.543-80.569-18.977 40.306-48.738 65.732-79.066 80.831 28.628 14.118 59.043 38.324 78.652 79.262zM156.454 539.071c0.937-10.044 9.303-17.669 19.391-17.778h0.218c9.891 0 18.301 7.538 19.391 17.473 14.685 136.061 130.941 137.891 135.843 137.935 10.828 0 19.5 8.737 19.609 19.5 0 10.763-8.671 19.565-19.391 19.717-5.011 0.044-122.662 3.028-136.061 137.565-0.98 10.044-9.39 17.691-19.391 17.691-10.087 0-18.606-7.582-19.609-17.561-13.813-135.538-130.941-137.63-136.061-137.674h-0.784c-10.719 0-19.609-8.78-19.609-19.609 0-10.981 8.366-19.565 20.175-19.609h0.305c5.142-0.065 123.12-1.895 135.974-137.652z" />
<glyph unicode="&#xe927;" glyph-name="children-clothing" d="M507.643 796.204c-4.488-1.895-8.976-3.399-13.508-4.662l13.356-26.864 21.003 21.134c-1.285 0.261-9.913 4.336-20.262 10.066-12.288 6.841-25.97 15.425-33.574 23.007-22.31 22.288-37.888 55.165-43.139 101.899l-2.375 8.78c-2.309 5.251-6.275 10.937-12.506 16.079-19.434 16.035-47.692 16.035-80.983-1.678l-230.77-118.588c-6.384-2.266-12.419-6.623-17.147-13.159-12.637-17.473-12.637-46.298-0.98-94.644l40.285-129.59c2.506-7.517 6.754-16.515 13.726-25.731 15.12-20.001 37.017-31.744 64.076-27.561l32.245 5.447c-4.009-21.134-7.974-43.727-11.722-67.235-7.233-45.361-12.92-89.742-16.471-131.53-10.959-128.937-1.895-215.999 41.766-253.189 7.081-6.035 16.537-8.41 25.6-6.427 0.24 0.044 1.394 0.261 3.377 0.501 19.064 2.331 41.265-0.109 61.745-10.85 28.563-14.99 50.002-44.402 61.2-94.448 3.072-13.704 15.164-23.443 29.13-23.443h151.617c13.966 0 26.058 9.739 29.13 23.443 11.199 50.045 32.659 79.458 61.2 94.448 20.458 10.741 42.681 13.203 61.745 10.85 1.983-0.24 3.137-0.436 3.377-0.501 9.063-1.983 18.519 0.414 25.6 6.427 43.662 37.191 52.725 124.274 41.766 253.189-3.551 41.788-9.238 86.169-16.471 131.53-3.747 23.508-7.713 46.102-11.722 67.235l31.809-5.381c27.495-4.249 49.37 7.495 64.512 27.495 6.972 9.216 11.22 18.192 13.552 25.186l39.936 128.218c12.179 50.241 12.179 79.088-0.458 96.561-4.728 6.536-10.763 10.872-17.147 13.159l-231.163 118.784c-32.921 17.517-61.179 17.517-80.613 1.482-6.231-5.142-10.196-10.828-12.506-16.079l-2.375-8.78c-5.273-46.777-20.829-79.654-43.161-101.921-11.286-11.264-21.962-18.105-32.703-22.659zM870.247 731.735l-39.239-125.778c-0.24-0.741-1.852-4.14-4.249-7.299-3.028-4.009-4.837-4.967-7.517-4.554l-74.229 12.549c-20.872 3.53-38.672-15.316-34.097-36.123 1.198-5.49 3.355-15.818 6.144-30.066 4.662-23.835 9.303-49.827 13.661-77.061 7.015-44.010 12.528-86.953 15.926-127.129 8.083-95.145 2.854-165.452-13.77-193.449-27.495 1.808-57.627-2.811-86.822-18.149-39.152-20.545-68.826-57.191-85.624-111.071h-105.842c-16.776 53.88-46.45 90.526-85.624 111.071-29.217 15.316-59.327 19.957-86.822 18.149-16.624 27.997-21.853 98.304-13.77 193.449 3.421 40.176 8.911 83.14 15.926 127.129 4.336 27.256 8.998 53.248 13.661 77.061 2.789 14.249 4.946 24.554 6.144 30.066 4.575 20.807-13.225 39.653-34.097 36.123l-74.643-12.615c-2.266-0.349-4.074 0.61-7.103 4.619-2.397 3.159-4.009 6.58-4.423 7.843l-39.587 127.129c-5.229 21.853-6.689 35.317-7.451 40.677l226.391 116.344c5.294 2.811 8.998 4.575 11.482 5.73 8.737-51.549 29.086-91.354 57.954-120.157 14.249-14.227 29.631-24.816 45.143-32.289 5.578-2.68 10.828-4.793 15.665-6.405 2.832-0.915 2.832-0.915 4.902-1.503 1.634-0.436 1.634-0.436 2.309-0.61-5.185-1.133 8.693-3.399 20.175 2.375 11.591 1.787 37.191 14.096 61.549 38.411 28.868 28.803 49.261 68.608 57.976 120.2 2.418-1.133 5.991-2.832 11.090-5.534l226.762-116.54c-0.784-5.447-2.331-19.325-7.952-42.594zM552.982 622.755c0-25.295-20.306-45.775-45.492-45.775-25.208 0-45.448 20.48-45.448 45.775s20.24 45.84 45.448 45.84 45.492-20.545 45.492-45.84zM552.982 451.007c0-25.295-20.306-45.84-45.492-45.84-25.208 0-45.448 20.545-45.448 45.84s20.24 45.84 45.448 45.84 45.492-20.545 45.492-45.84z" />
<glyph unicode="&#xe928;" glyph-name="wash-cycle" d="M550.738 839.081c217.807-0.283 394.872-177.413 394.872-395.155h66.93c0 184.778-109.198 344.020-266.109 417.836l50.721 6.035-7.756 66.451-250.553-29.13 7.8-66.407 4.096 0.37zM889.072 242.851l-5.185-10.698c-73.053-114.841-197.218-183.252-333.41-183.252-77.715 0-153.121 22.572-218.003 65.362l-36.603-55.993c75.58-49.871 163.818-76.386 254.606-76.386 89.132 0 173.688 25.905 246.13 71.68l-12.070-24.729 60.329-29.435 97.215 199.419c0.479 0.675 1.133 1.329 1.482 2.048l-0.327 0.196 6.122 12.462-60.285 29.326zM375.263 798.317l-29.718 59.893c-158.567-78.565-257.068-237.372-257.068-414.262 0-1.133 0.087-2.331 0.087-3.421l-32.202 50.394-56.385-36.036 131.486-205.65c0.763-1.765 1.373-3.421 2.135-5.076l0.959 0.37 7.887-12.353 56.32 36.319-7.887 12.223c-23.291 51.44-35.47 106.431-35.47 163.23 0 151.356 84.142 287.156 219.855 354.369zM691.026 265.881h-287.156c-40.742 0-82.094 37.038-92.269 82.704l-32.049 138.806c0.523 0 1.198 0.37 1.656 0.37 2.244-0.196 3.9-0.37 7.233-2.527 4.27-2.941 6.798-5.752 9.652-9.739 4.466-5.469 8.737-14.924 19.783-23.77 5.316-4.183 12.179-7.691 19.957-9.848 7.887-2.244 16.733-3.137 27.147-3.137 15.687-0.087 29.435 4.793 39.653 11.983 15.12 10.828 23.203 24.38 30.132 32.659 3.573 3.987 6.427 6.994 8.933 8.453 2.331 1.373 4.096 2.048 7.691 2.048 4.662 0 7.233-1.242 11.874-4.662 6.95-5.185 15.12-16.493 26.711-27.953 5.948-5.752 12.92-11.504 21.809-15.883 8.562-4.423 19.26-7.037 30.851-7.037 15.12-0.196 28.432 4.793 37.605 12.353 6.841 5.556 11.591 11.787 15.207 17.255 5.665 8.17 9.652 14.597 13.443 17.822 3.9 3.137 6.602 5.076 16.449 5.469 8.453-0.37 11.504-1.939 15.164-4.706 2.767-2.048 5.665-5.425 8.976-10.131 5.185-6.798 10.828-16.537 21.243-25.382 10.218-8.976 25.622-15.207 44.010-15.011 15.6-0.196 28.955 3.137 39.653 8.846 3.508 1.765 6.602 3.813 9.456 5.839 10.61 7.887 17.452 17.452 22.484 25.055 3.137 4.75 5.752 8.846 7.691 11.417 2.244 2.702 3.508 3.704 3.9 3.704 5.185 2.985 8.083 3.377 9.456 3.377 1.416 0 3.094-0.196 7.277-2.702 0.327-0.196 1.002-0.675 1.482-0.893l-32.507-142.183c-10.262-45.579-51.766-82.595-92.596-82.595v0zM840.334 596.393l-15.6-68.129c-5.599 2.092-11.177 3.704-17.299 3.704-10.218 0-19.195-3.573-27.387-7.887-7.517-4.096-12.353-9.499-16.166-14.597-1.002-1.373-1.939-2.702-2.854-3.987-6.318-9.26-11.068-17.343-17.212-22.681-6.275-5.076-13.072-8.889-29.042-9.172-9.935 0.087-14.118 2.135-18.301 5.033-6.122 4.031-11.504 13.639-20.763 25.709-4.859 5.839-10.981 12.223-19.5 16.885-8.453 4.859-19.151 7.604-30.851 7.517-15.491 0.196-28.955-4.706-38.258-12.179-7.037-5.665-11.983-11.787-15.883-17.343-5.556-8.366-9.565-14.837-13.356-18.105-3.813-3.225-6.035-4.902-15.207-5.185-7.887 0.196-12.833 2.048-18.301 5.556-8.17 5.185-16.057 15.404-26.297 26.471-5.076 5.556-11.024 11.133-18.824 15.774-7.604 4.619-17.343 7.887-27.866 7.8-14.401 0.196-26.755-5.839-34.794-13.116-12.462-11.024-19.064-22.92-26.471-30.524-3.617-3.9-7.081-6.602-10.698-8.366-3.704-1.939-7.887-3.137-14.445-3.225-10.61 0-16.733 1.482-19.957 2.941-2.811 1.046-3.987 2.048-5.556 3.508-2.418 2.244-5.033 6.514-9.412 12.833-4.27 6.122-10.654 14.118-20.393 20.72-9.042 6.188-19.26 8.976-28.432 8.976-3.617 0-6.994-0.566-10.218-1.198l-16.449 72.203-45.927-10.501 57.083-247.612c15.207-68.129 74.534-119.459 138.131-119.459h287.156c62.464 0 123.316 52.333 138.414 119.307l56.712 247.764-45.775 10.567zM423.457 305.163h107.346v37.409h-107.346v-37.409zM571.719 305.163h107.346v37.409h-107.346v-37.409zM348.051 377.126h107.346v37.409h-107.346v-37.409zM493.851 377.126h107.237v37.409h-107.237v-37.409zM639.303 377.083h107.346v37.409h-107.346v-37.409z" />
<glyph unicode="&#xe929;" glyph-name="cotton" d="M508.888 151.361c-3.875 2.67-8.312 4.317-13.192 4.779v0.462l-1.586 0.12c-68.206 2.329-117.76 17.749-152.235 41.984-25.941 18.312-44.434 41.643-56.882 71.56 1.084 0 2.329 0.462 3.353 0.462 31.463-0.12 59.452-9.216 87.16-26.564 27.528-17.127 54.272-42.787 80.153-74.591 5.682-6.887 14.115-10.521 22.588-10.521l13.091 3.072c9.899 5.12 15.822 15.24 15.822 25.941l-1.024 7.389c-7.288 27.708-10.521 52.445-10.521 74.13 0.060 25.138 4.779 45.799 12.85 64.010 8.312-18.211 12.91-38.972 13.031-64.331 0-21.685-3.233-46.421-10.12-74.069l-0.904-7.108c0-10.802 6.144-21.042 16.203-26.062l12.91-2.952c8.533 0 16.886 3.755 22.588 10.862 25.198 31.583 51.762 57.003 79.531 74.25 27.768 17.227 56.38 26.443 88.586 26.564 1.305 0 2.731-0.462 3.976-0.462-12.569-29.696-31.563-53.027-57.966-71.459-35.218-24.456-85.273-39.755-152.576-42.104-5.562-0.241-10.521-2.47-14.838-5.361zM902.787 133.271c-32.648-30.499-88.466-47.787-150.648-47.787h-1.084c-44.373 0-90.855 9.678-133.622 26.002 34.816 8.654 65.757 21.564 91.879 39.534 47.104 32.427 78.105 80.434 91.698 137.216l0.843 6.887c0 5.461-1.526 10.802-4.377 15.48-4.277 6.546-10.923 11.324-18.713 12.85-16.565 3.474-32.648 5.24-48.53 5.24h-0.562c-43.57 0-83.566-13.312-118.664-35.318-11.103-6.887-21.163-15.882-31.523-24.456 0 0.12 0.060 0.221 0.060 0.341v1.144c0 52.967-16.605 100.232-50.116 136.312-5.401 5.923-12.971 9.336-20.882 9.336h-0.863c-8.011 0-15.922-3.534-21.323-9.678-32.025-35.84-48.931-82.663-48.931-135.63v-1.144c0-0.221 0.12-0.462 0.12-0.562-10.36 8.373-20.259 17.468-31.342 24.235-34.756 22.026-74.19 35.438-117.298 35.438h-0.683c-15.42 0-31.463-1.767-47.787-5.341-7.67-1.526-14.336-6.204-18.552-12.75-2.911-4.779-4.437-10.12-4.437-15.48l0.904-6.887c13.533-56.541 43.41-104.568 90.232-137.096 25.941-18.211 56.942-31.122 91.979-39.876-42.486-16.203-88.807-25.781-133-25.781h-1.124c-62.243 0-118.101 17.408-149.785 47.666-41.924 46.542-58.529 95.634-58.649 144.786v0.402c0 56.159 22.93 112.238 59.051 157.696 4.096 5.24 6.305 11.545 6.305 18.091l-0.462 5c-4.096 23.090-6.144 44.313-6.144 63.548 0.341 59.914 17.81 99.328 49.614 129.586 31.965 29.977 81.86 50.638 149.163 60.878 7.67 1.144 14.798 5.582 19.235 12.007 19.516 27.528 41.020 51.541 67.986 68.548 27.026 16.886 59.573 27.869 105.352 27.869 45.678 0 78.788-11.103 106.275-27.989 27.427-17.127 49.272-41.020 68.548-68.447 4.658-6.425 11.666-10.802 19.275-12.007 67.022-10.36 117.298-31.242 149.564-61.661 32.246-30.78 49.835-71.339 50.236-132.216 0-18.312-1.767-38.45-5.341-60.356l-0.462-4.899c0-6.546 2.229-12.85 6.305-17.97 35.96-45.217 58.248-101.316 58.248-157.355-0.221-49.333-16.786-98.886-57.966-145.408zM955.352 461.011c2.851 20.259 4.779 39.816 4.779 58.248v0.964c0 72.242-23.954 131.815-68.548 173.337-42.145 39.595-100.011 62.344-168.338 74.471-20.761 27.648-45.558 54.453-78.165 74.752-36.302 22.809-81.739 36.924-136.995 36.924-55.296 0-100.533-14.115-136.373-37.025-32.306-20.42-56.722-46.984-77.202-74.632-68.427-12.007-125.952-34.595-167.755-73.447-44.313-40.9-67.925-99.328-67.865-170.104v-1.827c0-19.516 1.928-40.097 5.24-61.56-38.571-52.445-64.010-115.873-64.11-183.176v-0.683c0-62.805 22.869-127.88 74.471-184.2l1.426-1.245c47.967-45.458 118.222-64.231 191.086-64.331 84.149 0.12 173.458 25.48 241.825 75.997 69.070-50.337 158.499-75.896 242.748-75.997 72.985 0.12 143.079 18.994 191.769 64.11l1.707 1.707c51.039 56.661 73.728 121.976 73.728 184.942v0.462c-0.1 66.881-25.018 130.088-63.428 182.312z" />
<glyph unicode="&#xe92a;" glyph-name="wash-immerse" d="M725.333 150.431h-431.893c-61.077 0-123.285 55.701-138.603 124.459l-43.627 188.971 0.171 0.064 17.451-3.584c6.229-4.16 9.984-7.915 14.144-13.312 6.357-7.701 13.035-20.949 29.269-33.024 6.635-4.949 14.592-9.088 23.701-12.075l5.504-1.579c11.499-2.923 24.363-4.267 39.573-4.267 22.912-0.171 42.667 6.464 57.664 16.512 22.4 14.827 34.475 33.856 44.736 45.141 5.056 5.717 9.323 9.6 12.971 11.669 3.584 2.069 6.464 3.093 12.181 3.264 7.296-0.235 11.627-1.963 18.517-6.784 10.155-7.019 22.123-22.741 39.467-38.741 8.64-7.979 19.093-15.936 31.893-22.016 12.864-6.016 28.181-9.707 44.971-9.664h0.683c21.675-0.064 40.64 6.741 54.016 17.003 10.219 7.701 17.237 16.448 22.848 24.021 8.192 11.499 14.037 20.203 19.584 24.64 5.611 4.373 10.219 7.232 25.045 7.637 12.907-0.171 17.963-2.816 23.36-6.571 3.925-2.923 8.085-7.403 13.141-13.867 7.36-9.365 16-23.083 31.381-35.371 14.997-12.523 37.397-21.056 64.235-20.779 22.784 0 42.112 4.501 57.877 12.117 23.808 11.669 37.845 29.867 47.168 43.008 4.715 6.635 8.597 12.245 11.499 15.765l5.397 5.163c7.915 3.989 12.288 4.821 14.933 4.821 2.517-0.064 5.227-0.448 11.285-3.819l2.752-1.899-44.075-192.725c-15.659-68.437-78.037-124.181-139.221-124.181v0zM195.925 573.898c24.597 19.883 61.867 26.325 97.067 3.925l72.149-41.045c7.573 67.371 6.571 173.355 95.723 187.008 16.555 1.749 30.827 1.301 43.221-1.173 70.912-13.632 78.592-88.917 96.107-154.731 57.707 38.741 127.104 102.165 206.827 25.259 38.165-42.56 39.573-70.912 22.571-97.451l-3.029-3.989-6.165-8.469c-8.085-9.6-18.411-19.2-29.931-29.419-7.573-3.712-17.173-6.229-32.789-6.464-14.997 0.235-21.845 3.2-27.733 7.125-9.088 5.717-17.003 18.752-30.827 35.648-7.125 8.085-16.235 17.067-28.736 23.573-12.565 6.635-27.84 10.283-44.8 10.219-22.4 0.171-41.771-6.4-55.744-16.725-10.496-7.637-17.621-16.512-23.467-24.192-8.427-11.627-14.315-20.544-19.712-24.981-5.269-4.331-9.088-6.955-22.571-7.296l-0.683-0.064c-12.075 0.107-19.755 2.923-27.733 7.808-11.968 7.296-23.573 21.44-38.741 36.885-7.531 7.467-16.448 15.488-27.84 21.781-11.285 6.336-25.323 10.731-40.533 10.667-20.437 0.171-38.4-7.979-50.581-18.069-18.411-15.275-28.288-32.064-39.125-42.389-5.269-5.269-10.219-9.045-15.765-11.733-5.611-2.517-12.181-4.373-22.059-4.437-15.893 0-25.216 2.069-30.379 4.203l-8.149 4.949-6.571 7.808-7.125 9.835c-3.925 5.269-9.536 11.392-16.235 17.451-11.392 29.653 0.469 59.968 23.36 78.485v0zM949.781 647.434l-28.629-125.141c-8.469 3.477-17.237 5.952-26.389 5.888-3.435 96.789-142.379 203.904-262.507 123.285l-0.619 2.368c-14.549 56.085-60.288 108.523-127.552 119.851-15.275 2.475-31.616 2.923-48.896 0.725-69.675-7.531-123.733-69.845-133.163-152.021l-0.171-1.792c-45.184 26.389-90.155 26.56-125.931 10.944-45.355-19.648-75.84-64.619-72.811-113.237l-5.781 0.811-18.24-2.581-30.208 130.901-68.885-15.872 85.845-372.267c22.955-102.4 112.064-179.541 207.616-179.541h431.872c93.76 0 185.088 78.827 208 179.264l85.333 372.608-68.885 15.808zM267.605 378.944c-24.256 0-43.84-19.648-43.84-43.84 0-24.149 19.584-43.84 43.84-43.84s43.84 19.712 43.84 43.84c0 24.192-19.584 43.84-43.84 43.84zM428.352 378.944c-24.256 0-43.84-19.648-43.84-43.84 0-24.149 19.584-43.84 43.84-43.84s43.84 19.712 43.84 43.84c0 24.192-19.584 43.84-43.84 43.84zM589.099 378.944c-24.256 0-43.84-19.648-43.84-43.84 0-24.149 19.584-43.84 43.84-43.84 24.149 0 43.733 19.712 43.733 43.84 0 24.192-19.605 43.84-43.733 43.84zM749.845 378.944c-24.256 0-43.84-19.648-43.84-43.84 0-24.149 19.584-43.84 43.84-43.84s43.84 19.712 43.84 43.84c0 24.192-19.584 43.84-43.84 43.84zM347.968 270.165c-24.256 0-43.84-19.648-43.84-43.84 0-24.149 19.584-43.84 43.84-43.84 24.149 0 43.733 19.712 43.733 43.84 0 24.192-19.584 43.84-43.733 43.84zM508.715 270.165c-24.256 0-43.84-19.648-43.84-43.84 0-24.149 19.584-43.84 43.84-43.84s43.84 19.712 43.84 43.84c0.021 24.192-19.584 43.84-43.84 43.84zM669.461 270.165c-24.256 0-43.84-19.648-43.84-43.84 0-24.149 19.584-43.84 43.84-43.84 24.149 0 43.733 19.712 43.733 43.84 0 24.192-19.584 43.84-43.733 43.84z" />
<glyph unicode="&#xe92b;" glyph-name="mode-auto" horiz-adv-x="2693" d="M2693.066 252.955c0-172.743-140.036-312.778-312.778-312.778s-312.778 140.036-312.778 312.778v341.315c0.025 5.551 0.652 10.942 1.819 16.128l-0.094-0.499c-1.088 9.929-1.714 21.457-1.725 33.129v0.016c0 172.743 140.036 312.778 312.778 312.778s312.778-140.036 312.778-312.778v0c-0.002-11.677-0.628-23.205-1.848-34.556l0.123 1.41c1.073-4.688 1.7-10.079 1.725-15.612v-341.333zM2548.682 326.090v292.595h-2.425c1.327 7.185 2.2 15.585 2.421 24.147l0.004 0.213c0 93.016-75.405 168.421-168.421 168.421s-168.421-75.405-168.421-168.421v0c0.255-8.804 1.127-17.202 2.578-25.4l-0.152 1.040h-2.425v-390.090h2.425c9.838-83.757 80.4-148.126 165.996-148.126s156.158 64.369 165.921 147.341l0.075 0.785h2.425v97.496zM1947.217 813.73h-168.421v-804.595c0-39.871-32.321-72.192-72.192-72.192s-72.192 32.321-72.192 72.192v0 804.595h-168.421c-40.391 0-73.135 32.744-73.135 73.135s32.744 73.135 73.135 73.135v0h481.226c40.391 0 73.135-32.744 73.135-73.135s-32.744-73.135-73.135-73.135v0zM1033.108-64c-172.922 1.309-312.596 141.793-312.596 314.898 0 0.723 0.002 1.445 0.007 2.167l-0.001-0.111v633.91c0 39.856 32.309 72.165 72.165 72.165s72.165-32.309 72.165-72.165v-609.549h2.425c-1.577-8.658-2.479-18.621-2.479-28.796 0-93.046 75.429-168.475 168.475-168.475s168.475 75.429 168.475 168.475c0 10.174-0.902 20.138-2.63 29.816l0.151-1.020h2.425v609.549c0 39.871 32.321 72.192 72.192 72.192s72.192-32.321 72.192-72.192v0-633.91c0.004-0.61 0.007-1.332 0.007-2.054 0-173.238-139.889-313.804-312.869-314.901l-0.104-0.001zM617.795-61.036c-5.707-1.604-12.26-2.527-19.029-2.527-33.346 0-61.463 22.382-70.149 52.943l-0.125 0.514-64.997 239.616c-2.323-0.401-5.090-0.691-7.901-0.804l-0.129-0.004h-248.832l-64.781-238.808c-8.863-30.996-36.942-53.303-70.231-53.303-6.706 0-13.201 0.905-19.368 2.6l0.512-0.12c-31.209 8.255-53.841 36.239-53.841 69.508 0 6.579 0.885 12.952 2.543 19.006l-0.118-0.504 238.43 879.023c8.839 30.999 36.91 53.315 70.194 53.315 6.72 0 13.227-0.91 19.406-2.613l-0.512 0.12c2.21-0.593 4.204-1.617 6.306-2.371 2.102 0.755 4.096 1.779 6.306 2.371 5.667 1.583 12.174 2.492 18.894 2.492 33.283 0 61.355-22.316 70.068-52.801l0.126-0.514 238.484-879.239c1.523-5.52 2.398-11.858 2.398-18.401 0-33.26-22.619-61.237-53.313-69.388l-0.501-0.113zM335.171 702.545l-88.872-327.68h177.853z" />
<glyph unicode="&#xe92c;" glyph-name="wash-eco" d="M548.671 410.112c-23.339 0.077-40.883 7.999-54.33 24.228-13.563 16.307-20.441 37.444-20.48 63.99 0.039 26.74 6.917 47.838 20.441 64.145 13.486 16.152 31.029 24.074 54.369 24.151 23.339-0.077 41.037-8.076 54.91-24.653 13.099-15.92 19.862-36.825 19.9-63.643-0.039-26.547-6.917-47.684-20.441-63.99-13.486-16.229-31.029-24.151-54.369-24.228zM641.41 580.907c-21.098 29.522-52.784 44.36-92.74 44.283-40.187 0.077-71.989-14.761-93.049-44.283-16.577-23.030-24.808-50.736-24.808-82.577 0-31.454 8.347-59.16 25.117-82.422 21.098-29.483 52.746-44.515 92.74-44.36 40.187-0.155 71.989 14.877 93.049 44.36 16.577 23.030 24.846 50.736 24.808 82.422 0.039 31.647-8.347 59.315-25.117 82.577zM619.945 304.505c5.603-0.29 11.206-0.425 16.809-0.425 89.61 0 173.732 34.893 237.143 98.111 74.887 74.887 109.665 180.61 94.556 285.29-15.998 2.28-32.227 3.4-48.456 3.4-89.416 0-173.578-34.777-236.795-98.034-6.183-6.105-11.631-12.829-17.273-19.398-5.874 12.018-13.022 22.721-21.253 32.072 4.057 4.598 7.767 9.429 12.095 13.756 70.27 70.231 163.782 108.872 263.207 108.872 22.798 0 45.597-2.048 68.086-6.105 7.574-1.43 13.525-7.419 14.916-15.032 22.219-120.832-16.114-244.601-102.748-331.158-70.443-70.366-163.995-109.085-263.496-109.085-19.63 0-39.337 1.584-58.754 4.676-70.424-53.731-144.925-101.956-222.44-143.766l-8.81-2.241-8.772 35.009c74.597 40.264 146.374 86.615 214.306 138.201-2.686 18.335-3.652 36.69-3.787 54.948 6.183-1.314 12.481-2.434 18.896-2.434 6.183 0 12.133 1.121 18.007 2.357 0.039-9.39 0.386-18.76 1.14-28.17 104.255 83.485 198.733 179.49 279.668 284.827 6.26 8.153 17.93 9.738 26.083 3.478 8.192-6.299 9.738-17.968 3.516-26.122-80.181-104.255-173.269-199.603-275.842-283.030zM175.626 416.237h-133.545v66.116h126.203v38.564h-126.203v59.701h136.752v38.487h-178.833v-241.432h181.113v38.564c0 0-5.487 0-5.487 0zM380.445 473.368h-4.482l-0.927-4.366c-4.521-22.953-13.718-38.719-27.358-48.688-9.313-6.724-20.132-10.201-33.038-10.201-25.774 0.077-43.394 8.462-55.219 25.31-10.24 14.684-15.727 36.362-15.727 65.188 0.039 28.517 7.11 49.809 20.75 65.072 12.558 14.104 28.402 20.905 49.191 20.982 14.104 0 25.658-2.744 34.932-7.922 12.674-7.187 20.596-18.509 24.267-35.55l0.927-4.328h40.728l-0.696 6.067c-2.396 22.18-12.172 41.115-28.711 55.837-18.471 16.384-42.583 24.46-71.448 24.46-34.314 0.077-62.522-11.631-82.731-34.971-20.287-23.146-30.295-53.634-30.256-90.614-0.039-42.351 11.013-75.544 33.695-98.497 19.437-19.707 45.017-29.677 75.467-29.599 11.438 0 22.296 1.507 32.652 4.444 17.505 4.83 32.343 13.525 44.206 25.813 15.688 16.384 25.426 38.371 29.368 65.304l0.927 6.26c0 0-36.516 0-36.516 0z" />
<glyph unicode="&#xe92d;" glyph-name="wash-merge" d="M164.639 217.477c-21.504-0.102-43.766 12.37-62.894 39.526-18.739 26.829-31.724 66.949-31.662 111.759-0.061 44.134 12.431 83.333 30.618 109.937 18.473 26.931 40.346 39.854 61.522 40.796h474.849v70.144l-477.696-0.102c-48.763-2.15-89.764-31.498-116.654-71.414-27.218-40.305-42.66-92.365-42.721-149.361 0.061-57.999 16.097-111.145 44.196-151.716 27.771-40.346 70.308-69.652 120.443-69.652h852.296v70.083h-852.296zM854.917 705.577c21.504 0 43.766-12.472 62.833-39.629 18.801-26.726 31.764-66.785 31.724-111.657 0.061-44.032-12.431-83.333-30.618-109.937-18.473-26.931-40.407-39.956-61.46-40.796h-474.911v-70.144h477.88c48.701 2.253 89.6 31.724 116.552 71.516 27.156 40.305 42.598 92.344 42.66 149.361-0.061 58.102-16.097 111.145-44.257 151.716-27.709 40.346-70.246 69.55-120.381 69.652h-852.193v-70.083h852.173z" />
<glyph unicode="&#xe92e;" glyph-name="wash-large-sized" d="M950.94 453.409v0 0zM945.553 413.050l-0.045-0.868v-4.675c0-16.54-6.634-28.672-14.425-38.244l-10.596-10.507-2.983-2.337-0.534-0.334c-1.803-1.202-23.93-14.47-58.635-34.972-54.183-32.145-137.461-81.052-214.439-124.394-38.467-21.549-75.286-41.828-106.029-57.767-30.364-15.827-55.652-27.626-66.36-31.232-11.687-4.074-23.018-5.654-33.992-5.654-21.86 0-42.763 6.79-57.923 14.024-7.613 3.473-13.713 7.123-17.631 9.683l-4.341 2.827-0.757 0.646-0.445 0.334-0.49 0.334c-0.045 0.111-12.399 9.038-31.655 23.218-28.895 21.37-73.216 54.495-114.020 85.994-20.346 15.716-39.869 31.121-55.964 44.277-16.050 13.045-29.050 24.42-34.705 30.297-17.675 18.054-27.136 37.153-33.124 60.55-5.81 23.285-7.346 50.599-7.279 80.607l0.045 11.487v4.029c-0.045 30.854-2.182 61.151-2.115 89.155 0 17.141 0.757 33.458 2.983 48.351 1.514 9.238 4.252 13.824 8.593 18.387 4.408 4.452 11.531 8.815 22.15 11.976 46.503 14.024 92.85 38.556 129.67 50.911 101.621 34.861 197.832 62.887 301.635 97.213 0.712 0.334 24.687 7.569 56.676 7.569 27.915 0 61.151-5.32 92.627-23.708 41.939-24.309 90.735-56.632 128.757-82.632 18.922-13.112 35.239-24.531 46.837-32.746 11.531-8.17 18.165-13.045 18.165-13.045l0.979-0.646 0.824-0.534c1.091-0.712 12.466-8.815 22.194-20.992 9.906-12.466 17.564-27.425 17.453-44.433l-0.111-3.272c-0.868-18.054-2.983-30.297-5.231-37.421-2.337-7.346-4.029-9.238-5.721-11.153l-0.111-0.223-0.378-0.334c-1.625-2.003-6.478-5.498-16.095-10.507-5.988-3.206-35.417-17.631-74.529-36.664-58.902-28.672-141.379-68.653-209.096-101.443-67.718-32.746-120.543-58.323-120.654-58.323l-1.514-0.757-0.935-0.534c-0.824-0.445-15.605-8.058-40.804-8.058-18.766 0-43.631 4.029-74.797 19.411-41.116 20.191-91.715 58.145-130.649 90.624-19.478 16.273-36.33 31.165-48.15 41.984-5.921 5.387-10.596 9.728-13.824 12.733l-4.742 4.563-53.582-55.43c0.445-0.445 29.651-28.717 70.99-63.154 41.494-34.371 94.319-74.908 145.675-100.463 41.338-20.502 78.826-27.425 109.056-27.425 42.429 0.111 68.764 12.733 76.755 17.074l0.045-0.111c0 0 94.163 45.59 191.911 92.961 48.84 23.708 98.682 47.816 137.995 67.072 39.535 19.211 67.94 33.124 76.266 37.376l-0.267-0.111 0.601 0.334c2.293 1.313 4.942 2.983 7.457 4.341 0.646-2.449 1.247-4.675 1.692-7.502 1.358-8.86 1.692-18.387 1.692-23.93l-0.045-3.807zM917.393 356.307v0zM1022.753 416.857c-0.111 11.687-0.49 32.746-6.901 55.474-3.384 11.375-8.103 23.663-18.387 35.684-0.712 1.024-2.003 1.914-2.827 2.894 0.045 0.267 0.223 0.601 0.334 0.935 4.942 16.161 7.391 34.104 8.593 56.075l0.223 7.235c-0.111 43.142-20.013 75.999-37.91 96.835-15.983 18.655-30.564 28.984-35.306 32.145-0.534 0.334-110.703 80.673-200.459 132.831-46.458 26.869-93.852 33.992-131.317 33.992-46.125 0-78.158-10.552-80.785-11.375-102.111-33.77-198.656-61.841-302.503-97.414-44.922-15.605-90.78-39.535-126.753-50.042-19.745-5.877-39.046-15.716-54.784-31.432-15.716-15.605-26.824-37.421-30.186-61.418-2.961-20.302-3.784-40.27-3.784-59.726 0-31.655 2.115-62.019 2.115-89.155v-3.384l-0.111-12.132c0.111-32.256 1.247-65.759 9.639-99.439 8.326-33.458 24.687-67.339 53.025-95.855 13.112-13.267 33.503-30.141 58.635-50.198 74.73-59.726 186.902-141.535 187.125-141.757v0.111c6.478-4.675 55.051-42.051 127.065-42.696 18.543-0.111 38.623 2.783 58.969 9.683 25.511 9.038 63.31 28.227 110.592 53.626 140.243 75.553 350.030 201.973 350.364 202.084l0.223 0.223c2.337 1.469 17.185 10.596 32.902 29.429 15.494 18.61 32.1 48.529 32.1 87.418l-0.045 2.671 0.156 6.678z" />
<glyph unicode="&#xe92f;" glyph-name="shirt" d="M628.204 638.3l-73.216 42.496c25.62 25.231 49.705 57.672 70.042 87.081 10.056 14.623 18.412 27.709 25.682 39.301 1.7-1.823 3.789-3.4 5.489-5.12-1.311-1.311-2.908-2.355-3.953-3.912l6.533-4.28 21.217-23.859-51.794-131.707zM516.669 716.022c-17.49 17.326-43.971 44.36-67.174 70.963-11.592 13.189-22.323 26.44-30.515 37.827-3.912 5.325-7.086 10.383-9.564 14.684 2.417 1.208 4.956 2.355 8.131 3.564 15.278 5.222 40.632 8.786 81.9 8.786 7.7 0 15.831-0.102 24.637-0.328 52.449-1.311 79.442-3.564 90.808-6.984 1.659-0.43 2.314-0.778 3.297-1.208-11.715-19.19-30.72-49.029-52.224-77.722-14.684-19.743-30.781-38.748-45.732-53.105-1.311 1.27-2.068 2.048-3.564 3.523v0zM410.071 632.791l-67.113 140.022 18.698 21.053 6.533 4.178c-0.328 0.655-1.044 0.881-1.475 1.536 2.703 2.478 5.386 4.506 8.090 7.373 4.895-7.373 10.179-14.787 16.384-22.876 28.262-36.168 68.055-76.964 91.914-100.598l-73.032-50.688zM1020.436 782.5v1.577l-0.225 1.434v1.147l-0.492 1.311-0.061 0.389-0.164 0.778-0.205 0.676-0.102 0.655-0.266 0.614-1.147 5.939h-0.43l-0.43 2.15h-2.478c-4.731 6.656-11.817 11.387-20.111 12.636v0.102l-0.553 0.102h-0.225l-0.819 0.225h-0.266l-0.614 0.102h-0.553l-0.614 0.102h-266.424c-12.8 6.533-23.306 12.636-30.515 18.248-9.667 7.639-16.097 15.012-23.695 26.010-4.178 5.878-8.417 12.308-15.503 18.739-11.1 10.015-25.784 15.053-44.483 17.756-19.128 2.703-44.81 3.953-84.705 5.059-9.134 0.164-17.695 0.266-25.887 0.266-43.766 0-73.503-3.297-97.034-11.264-23.593-7.803-40.12-21.873-51.732-36.721-10.67-13.312-15.729-18.145-21.668-22.651-4.997-3.625-13.148-8.458-24.453-15.442l-277.381-0.307-1.311-0.328 0.061-0.102c-8.253-1.372-15.278-6.001-19.948-12.534h-1.229l-2.191-5.386-0.061-0.225h-0.717l-0.881-4.731-0.389-1.147v-0.655l-0.061-0.225-0.102-0.553-0.164-0.737v-0.655l-0.102-0.655-0.102-0.614v-216.719l0.225-1.27v-0.553l0.225-1.27 0.102-0.553v-0.778l0.328-0.881 0.942-4.895h0.778l0.225-0.553 1.987-4.956h1.331c4.669-6.533 11.653-11.162 19.784-12.636l-0.061-0.102 0.43-0.102 0.881-0.225h0.819l0.614-0.102h0.553l0.389-0.102h178.934v-405.524h62.505v436.9c0 15.892-11.878 29.082-27.259 31.171h-1.27l-0.389 0.102h-0.205l-0.43 0.061h-178.852v149.135h239.514l89.498-186.47 124.396 86.2 135.782-78.889 70.533 179.159h235.622v-149.135l-181.084-0.164c-15.565-2.089-27.423-15.278-27.423-31.171v-461.046h0.102v-46.449h-415.703v-62.73h446.874c17.367 0 31.334 14.193 31.334 31.437v507.453l181.001 0.204 0.983 0.225h0.266v0.102c8.192 1.372 15.278 6.001 20.009 12.759h2.58l0.43 2.15h0.43l1.147 5.939v0.061l0.225 0.655 0.164 0.778 0.102 0.225 0.102 0.43 0.164 0.614v0.102l0.553 1.434v1.475l0.061 0.225 0.164 0.881v1.802l0.102 0.492v213.135l-0.082 0.881z" />
<glyph unicode="&#xe930;" glyph-name="mode-dry" d="M504.079-47.146c-277.836 0-503.067 225.231-503.067 503.067s225.231 503.067 503.067 503.067c277.836 0 503.067-225.231 503.067-503.067s-225.231-503.067-503.067-503.067zM504.079 10.124c246.207 0 445.797 199.59 445.797 445.797s-199.59 445.797-445.797 445.797c-246.207 0-445.797-199.59-445.797-445.797s199.59-445.797 445.797-445.797zM339.432 216.314l33.577 33.577c33.628-36.95 82.11-60.143 136.008-60.143 101.539 0 183.852 82.313 183.852 183.852 0 34.625-16.805 83.389-50.451 145.7l34.949 34.949c41.948-75.265 62.945-135.225 62.945-180.649 0-127.741-103.554-231.295-231.295-231.295-66.999 0-127.344 28.487-169.585 74.009zM289.49 300.562c-7.635 22.958-11.769 47.515-11.769 73.038 0 83.468 70.898 216.017 212.401 402.415l18.894 24.889 18.894-24.889c37.946-49.986 70.815-96.099 98.601-138.432l-34.319-34.319c-23.578 36.393-51.302 76.058-83.176 118.922-122.653-164.943-183.852-282.511-183.852-348.586 0-11.683 1.090-23.112 3.173-34.19l-38.848-38.848zM636.679 386.111c-1.471 10.469-11.151 17.764-21.621 16.292s-17.764-11.151-16.292-21.621c7.387-52.562-29.234-101.16-81.796-108.547-10.469-1.471-17.764-11.151-16.292-21.621s11.151-17.764 21.621-16.292c73.501 10.33 124.711 78.288 114.381 151.788zM801.902 788.359l-630.19-630.154 40.496-40.496 630.885 628.064-19.763 21.104-21.427 21.482z" />
<glyph unicode="&#xe931;" glyph-name="shopping-cart" d="M328.512 83.168c-40.256 0-72.864-32.608-72.864-72.864s32.608-72.864 72.864-72.864c40.256 0 72.864 32.608 72.864 72.864s-32.608 72.864-72.864 72.864zM838.624 83.168c-40.256 0-72.864-32.608-72.864-72.864s32.608-72.864 72.864-72.864c40.256 0 72.864 32.608 72.864 72.864 0.032 40.256-32.576 72.864-72.864 72.864zM910.912 119.616h-591.84c-52.512 0-98.688 41.536-105.088 94.56l-61.792 435.040-35.168 203.328c-2.176 17.76-18.368 32.256-34.176 32.256h-46.4c-20.128 0-36.448 16.32-36.448 36.416 0 20.128 16.32 36.448 36.448 36.448h46.432c53.152 0 99.84-41.536 106.304-94.56l35.072-202.56 62.048-436.928c2.048-16.896 17.344-31.168 32.8-31.168h591.84c20.16 0 36.448-16.288 36.448-36.448-0.032-20.096-16.32-36.384-36.48-36.384zM328.32 299.136c-1.504 20.064 13.6 37.536 33.632 38.976l494.304 36.448c18.144 0.096 33.44 14.368 35.456 30.56l57.408 328.384c1.472 12.256-1.92 25.664-9.248 33.952-4.704 5.312-10.624 8.032-17.504 8.032h-630.88c-20.128 0-36.448 16.32-36.448 36.448 0 20.096 16.32 36.416 36.448 36.416h630.88c27.84 0 53.408-11.552 72.032-32.576 21.28-24 31.040-57.856 26.784-92.96l-57.408-328.416c-6.208-51.072-52.32-92.608-104.832-92.608l-491.616-36.32c-0.896-0.064-1.824-0.096-2.688-0.096-18.912 0-34.912 14.56-36.32 33.76z" />
<glyph unicode="&#xe932;" glyph-name="wash-precontract" d="M475.038 739.938v-309.602c0-18.747 15.163-33.969 33.969-33.969h222.425v67.938h-188.396v275.633h-67.998zM887.611 308.145c-58.033-156.416-208.226-268.327-384.473-268.327-113.152 0-215.769 46.001-290.068 120.3-74.319 74.358-120.418 176.935-120.418 290.068 0 113.191 46.1 215.769 120.418 290.127 74.319 74.319 176.935 120.359 290.068 120.359 21.878 0 43.934-1.733 65.477-5.258l3.919-0.551 12.15 74.752-3.938 0.65c-25.58 4.194-51.712 6.262-77.607 6.262-268.091 0-486.38-218.112-486.38-486.321 0-268.091 218.289-486.262 486.38-486.262 210.393 0 389.514 134.695 457.058 322.087l1.398 3.978-72.684 21.602-1.3-3.466zM739.958 870.42c-22.489 12.702-46.001 23.611-70.282 32.512l-23.493-63.744c20.874-7.601 41.137-17.014 60.199-27.924l33.575 59.156zM870.341 762.782c-16.62 19.633-34.974 38.046-54.548 54.666l-44.052-51.692c16.738-14.316 32.453-30.11 46.887-47.006l51.712 44.032zM891.983 593.211l63.842 23.552c-8.842 24.064-19.81 47.675-32.394 70.065l-59.195-33.457c10.791-19.141 20.185-39.444 27.746-60.16zM951.099 493.214c-33.792 0-60.987-27.136-60.987-60.928 0-33.733 27.195-61.105 60.987-61.105 33.851 0 61.105 27.372 61.105 61.105 0 33.792-27.254 60.928-61.105 60.928z" />
<glyph unicode="&#xe933;" glyph-name="wash-pre" d="M948.263 679.326l-85.090-372.126c-15.518-68.391-77.804-124.101-139.008-124.101h-431.084c-61.086 0-123.195 55.65-138.496 124.258l-85.701 372.027-68.884-15.872 85.701-371.673c22.922-102.183 111.872-179.259 207.38-179.259h431.084c93.716 0 184.911 78.631 207.774 178.905l85.189 372.066-68.864 15.774zM473.246 374.725h70.617v408.044h-70.617v-408.044z" />
<glyph unicode="&#xe934;" glyph-name="wash-ing" d="M729.127 173.785h-434.137c-61.401 0-123.924 55.985-139.343 125.105l-43.855 189.952 0.177 0.059 17.546-3.604c6.262-4.175 10.043-7.956 14.218-13.371 6.38-7.739 13.095-21.051 29.401-33.182 6.656-4.962 14.671-9.137 23.808-12.13l5.534-1.575c11.559-2.934 24.497-4.293 39.778-4.293 23.020-0.177 42.89 6.498 57.954 16.601 22.508 14.907 34.658 34.028 44.977 45.371 5.081 5.75 9.374 9.649 13.036 11.737 3.604 2.087 6.498 3.111 12.249 3.269 7.345-0.217 11.678-1.969 18.629-6.833 10.22-7.050 22.233-22.863 39.68-38.932 8.684-8.015 19.18-16.030 32.059-22.114 12.918-6.046 28.337-9.767 45.214-9.708h0.67c21.78-0.059 40.862 6.774 54.292 17.093 10.279 7.739 17.329 16.542 22.961 24.162 8.231 11.559 14.1 20.322 19.692 24.773 5.652 4.411 10.279 7.286 25.167 7.68 12.977-0.177 18.058-2.816 23.473-6.597 3.958-2.934 8.133-7.444 13.214-13.942 7.385-9.433 16.089-23.198 31.547-35.545 15.065-12.583 37.593-21.169 64.551-20.874 22.922 0 42.319 4.51 58.191 12.19 23.926 11.737 38.046 30.031 47.399 43.225 4.746 6.656 8.625 12.308 11.559 15.852l5.415 5.199c7.956 3.998 12.367 4.844 15.006 4.844 2.54-0.059 5.258-0.453 11.343-3.84l2.757-1.91-44.308-193.733c-15.636-68.903-78.336-124.928-139.855-124.928v0zM196.962 599.454c24.714 19.968 62.188 26.466 97.575 3.958l72.527-41.255c7.621 67.722 6.597 174.277 96.217 187.983 16.64 1.753 30.976 1.3 43.461-1.182 71.286-13.706 79.006-89.383 96.61-155.53 58.014 38.932 127.764 102.715 207.911 25.403 38.38-42.772 39.778-71.286 22.686-97.969l-3.052-3.998-6.203-8.527c-8.133-9.649-18.511-19.298-30.070-29.578-7.621-3.722-17.27-6.262-32.965-6.498-15.065 0.217-21.957 3.21-27.884 7.168-9.137 5.75-17.093 18.846-30.976 35.84-7.168 8.133-16.305 17.152-28.889 23.71-12.642 6.656-27.983 10.319-45.036 10.279-22.508 0.177-41.984-6.439-56.044-16.817-10.555-7.68-17.723-16.601-23.591-24.32-8.468-11.678-14.395-20.657-19.81-25.108-5.297-4.352-9.137-6.991-22.686-7.345l-0.67-0.059c-12.13 0.118-19.87 2.934-27.884 7.838-12.012 7.345-23.71 21.563-38.932 37.081-7.562 7.503-16.542 15.577-27.983 21.898-11.343 6.38-25.442 10.772-40.743 10.732-20.539 0.177-38.597-8.015-50.846-18.176-18.511-15.34-28.436-32.217-39.326-42.614-5.297-5.297-10.279-9.078-15.852-11.796-5.652-2.54-12.249-4.411-22.174-4.45-15.97 0-25.344 2.087-30.523 4.234l-8.192 4.962-6.597 7.838-7.168 9.886c-3.958 5.297-9.59 11.461-16.305 17.546-11.52 29.775 0.374 60.258 23.414 78.868v0zM954.762 673.398l-28.79-125.794c-8.527 3.505-17.329 5.986-26.526 5.927-3.446 97.3-143.124 204.977-263.877 123.924l-0.63 2.363c-14.612 56.379-60.613 109.095-128.217 120.478-15.34 2.481-31.764 2.934-49.152 0.729-70.026-7.562-124.377-70.203-133.868-152.832l-0.177-1.812c-45.43 26.526-90.624 26.703-126.582 11.008-45.607-19.751-76.249-64.965-73.196-113.822l-5.809 0.788-18.334-2.599-30.366 131.604-69.238-15.931 86.292-374.213c23.079-102.932 112.64-180.48 208.699-180.48h434.156c94.247 0 186.073 79.242 209.093 180.204l85.76 374.528-69.238 15.931z" />
<glyph unicode="&#xe935;" glyph-name="wash-dewatering" d="M954.486 681.413l-85.76-374.626c-15.636-68.766-78.316-124.849-139.815-124.849h-434.018c-61.381 0-123.904 56.025-139.303 125.086l-86.37 374.39-69.218-15.911 86.272-374.114c23.079-102.912 112.62-180.421 208.64-180.421h434.038c94.228 0 186.014 79.163 209.034 180.086l85.76 374.508-69.258 15.852zM502.863 251.865c68.49 0 130.56 28.377 175.577 74.142 44.8 45.706 72.546 108.839 72.546 178.334 0 56.871-22.843 108.544-59.471 146.018-36.785 37.573-87.67 60.77-143.872 60.77-56.084 0-106.91-23.198-143.754-60.77-36.785-37.455-59.53-89.147-59.53-146.018 0-44.288 17.723-84.46 46.316-113.684 28.711-29.223 68.431-47.281 112.167-47.281 43.776 0 83.338 18.058 112.108 47.281 28.554 29.223 46.434 69.396 46.434 113.684 0 31.705-12.8 60.534-33.28 81.349-20.598 21.051-49.034 34.068-80.463 34.068-31.37 0-59.865-13.036-80.404-34.068-20.48-20.815-33.182-49.703-33.182-81.349h47.852c0 18.846 7.385 35.761 19.358 47.892 11.796 12.19 28.219 19.692 46.375 19.692 18.058 0 34.481-7.503 46.257-19.692 12.13-12.13 19.515-29.046 19.515-47.892 0-31.37-12.465-59.806-32.492-80.226-19.968-20.362-47.557-32.945-78.080-32.945-30.641 0-58.171 12.583-78.139 32.945-20.086 20.421-32.492 48.857-32.492 80.226 0 44.111 17.428 83.791 45.647 112.561 27.983 28.652 66.914 46.375 109.785 46.375 42.988 0 81.743-17.723 109.844-46.375 28.219-28.77 45.706-68.431 45.706-112.561 0-56.596-22.508-107.874-58.782-144.876-36.273-36.903-86.213-59.687-141.548-59.687-55.296 0-105.334 22.784-141.666 59.687-36.214 37.002-58.722 88.241-58.722 144.876 0 69.218 27.53 131.899 71.936 177.211 44.288 45.194 105.669 73.118 173.253 73.118 67.643 0 128.926-27.924 173.312-73.118 44.406-45.312 71.936-107.993 71.936-177.211h47.793c0 82.196-32.886 156.672-85.701 210.668-53.090 54.055-126.326 87.454-207.34 87.454-80.955 0-154.191-33.398-207.163-87.454-53.090-53.996-85.819-128.473-85.819-210.668 0-69.514 27.766-132.647 72.665-178.334 44.8-45.765 106.85-74.142 175.518-74.142z" />
<glyph unicode="&#xe936;" glyph-name="wash-poaching" horiz-adv-x="1025" d="M728.719 200.369h-429.279c-60.838 0-122.682 55.318-137.921 123.687l-47.847 207.473c0.828 0.118 1.794 0.493 2.464 0.493l10.823-3.785v-0.059c6.309-4.298 10.094-8.536 14.51-14.352 6.427-8.379 12.952-22.435 29.295-35.545 8.142-6.309 18.315-11.612 29.966-14.687 11.769-3.292 24.958-4.791 40.513-4.791 23.559-0.217 43.983 7.196 59.222 17.92 22.652 16.126 34.658 36.333 45.146 48.615 5.185 6.309 9.601 10.547 13.169 12.735 3.627 2.169 6.092 3.075 11.553 3.174 6.979-0.118 10.882-1.794 17.861-7.038 10.389-7.649 22.612-24.623 39.902-41.755 8.812-8.477 19.32-17.191 32.588-23.618 13.011-6.703 28.803-10.725 46.112-10.665 22.612-0.276 42.524 7.255 56.146 18.531 10.389 8.26 17.368 17.644 22.888 25.727 8.438 12.282 14.391 21.824 20.089 26.733 5.757 4.751 9.936 7.531 24.505 7.984 12.676-0.276 17.368-2.839 22.77-6.861 4.179-3.135 8.438-8.142 13.445-15.062 7.59-10.212 16.245-24.781 31.582-38.009 15.357-13.386 38.344-22.829 65.865-22.494 23.322-0.158 43.253 4.791 59.281 13.228 5.244 2.622 9.818 5.638 14.056 8.773 15.909 11.769 26.181 26.24 33.711 37.398 4.692 7.097 8.595 13.11 11.671 17.073l5.52 5.638c7.866 4.298 12.105 5.027 14.293 5.027 2.070-0.118 4.574-0.394 10.823-3.963 0.552-0.394 1.498-1.163 2.228-1.617l-48.615-212.382c-15.377-68.113-77.398-123.53-138.335-123.53v0zM951.865 694.448l-23.322-101.982c-8.201 3.233-16.797 5.638-25.845 5.638-15.239 0-28.743-5.086-40.966-11.769-11.217-6.19-18.531-14.234-24.229-21.883l-4.239-5.796c-9.384-13.958-16.58-26.062-25.727-33.928-9.266-7.59-19.537-13.445-43.371-13.78-14.727 0.158-21.153 3.233-27.285 7.472-9.147 6.19-17.309 20.483-31.149 38.463-7.196 8.773-16.363 18.354-29.138 25.333-12.735 7.196-28.527 11.336-46.112 11.217-23.105 0.276-43.155-7.137-57.093-18.196-10.725-8.438-17.92-17.743-23.657-26.003-8.477-12.4-14.51-22.218-20.030-27.068-5.697-4.751-9.088-7.255-22.829-7.767-11.829 0.217-19.143 3.075-27.344 8.26-12.006 7.866-23.894 23.164-39.133 39.685-7.767 8.201-16.58 16.698-28.251 23.618-11.434 6.801-26.062 11.671-41.755 11.553-21.272 0.276-39.803-8.773-52.026-19.655-18.531-16.363-28.408-34.323-39.468-45.599-5.303-5.697-10.429-9.759-16.028-12.499-5.52-2.74-11.769-4.574-21.607-4.692-15.909 0-25.057 2.169-29.966 4.298l-8.26 5.343c-3.47 3.292-7.432 9.601-13.958 19.083-6.407 9.325-15.909 21.173-30.518 30.991-13.406 9.207-28.704 13.504-42.425 13.445-5.421-0.059-10.33-0.789-15.062-1.794l-24.899 108.015-68.606-15.791 85.343-370.057c22.77-101.805 111.405-178.493 206.507-178.493h429.279c93.327 0 184.132 78.246 206.902 178.158l84.732 370.51-68.468 15.673zM328.756 259.176h160.356v55.811h-160.356c0 0 0-55.811 0-55.811zM550.344 259.176h160.356v55.811h-160.356v-55.811zM216.108 366.679h160.356v55.811h-160.356c0 0 0-55.811 0-55.811zM433.853 366.679h160.356v55.811h-160.356v-55.811zM651.538 366.679h160.356v55.811h-160.356v-55.811z" />
<glyph unicode="&#xe937;" glyph-name="range-large" d="M991.764 452.608c0.799-5.571-0.86-11.203-4.547-15.462s-9.032-6.697-14.643-6.697h-212.664c-10.711 0-19.395 8.684-19.395 19.395s8.684 19.395 19.395 19.395h189.563c-9.851 47.493-28.692 88.31-56.545 122.696-49.111 60.6-152.863 95.601-225.505 72.499-91.034-28.918-131.85-80.118-151.347-164.639-2.99-12.943-4.669-21.606-7.7-40.346l3.379-0.532c37.192-5.816 56.054-9.687 75.387-16.671 108.769-39.301 179.876-141.394 167.363-261.632-13.23-127.263-130.028-230.953-250.634-225.976-10.383 0.43-18.596 8.991-18.596 19.374v199.496c0 10.711 8.684 19.395 19.395 19.395s19.395-8.684 19.395-19.395v-179.794c93.327 6.636 181.412 90.501 191.857 190.956 10.568 101.683-49.295 187.658-141.967 221.143-16.2 5.857-33.423 9.4-68.178 14.828l-3.482 0.553c-4.69-28.529-8.438-45.056-14.52-61.85-39.281-108.769-141.394-179.876-261.632-167.383-127.242 13.21-230.953 130.007-225.976 250.614 0.43 10.383 8.991 18.596 19.374 18.596h199.496c10.711 0 19.395-8.684 19.395-19.395s-8.684-19.395-19.395-19.395h-179.814c6.636-93.327 90.481-181.412 190.956-191.857 101.683-10.588 187.658 49.295 221.123 141.967 5.038 13.988 8.397 28.795 12.698 54.907-9.585 1.72-16.753 3.215-26.092 5.386-96.993 22.364-159.457 72.151-192.901 177.398-28.078 88.392 12.452 208.548 85.074 267.387 45.22 36.639 99.922 59.535 163.758 68.69 5.571 0.799 11.203-0.86 15.462-4.547 4.239-3.686 6.697-9.032 6.697-14.664v-212.644c0-10.711-8.684-19.395-19.395-19.395s-19.395 8.684-19.395 19.395v189.563c-47.514-9.851-88.31-28.713-122.696-56.566-60.6-49.111-95.601-152.842-72.499-225.505 28.918-91.034 80.118-131.85 164.639-151.347 7.782-1.823 15.606-3.441 23.491-4.854 3.195 19.702 4.956 28.815 8.192 42.824 22.364 96.993 72.151 159.457 177.398 192.901 88.392 28.078 208.548-12.452 267.387-85.074 36.618-45.199 59.494-99.901 68.649-163.738zM565.125 837.181c-9.994 3.83-15.012 15.032-11.182 25.047 3.83 9.994 15.032 15.012 25.047 11.182 51.18-19.579 92.815-48.517 124.58-86.733 4.588-5.304 5.96-12.677 3.584-19.292-2.396-6.615-8.151-11.407-15.073-12.554s-13.926 1.556-18.309 7.045c-27.402 32.952-63.488 58.040-108.646 75.305zM585.626 921.457c-10.465 2.212-17.183 12.513-14.95 22.999 2.212 10.486 12.513 17.183 22.999 14.95 81.981-17.367 145.838-59.392 190.587-125.583 6.001-8.868 3.666-20.931-5.202-26.931s-20.931-3.666-26.931 5.202c-39.035 57.733-94.208 94.024-166.502 109.363zM407.491 62.976c6.554-2.232 11.428-7.803 12.759-14.602s-1.044-13.783-6.267-18.35c-5.222-4.547-12.472-5.98-19.026-3.748-52.326 17.879-92.365 47.309-119.419 88.146-5.919 8.929-3.482 20.972 5.448 26.89s20.972 3.482 26.89-5.448c22.118-33.423 55.091-57.672 99.615-72.888zM394.22-25.436c6.922-1.065 12.759-5.796 15.217-12.349 2.458-6.574 1.188-13.947-3.338-19.313s-11.571-7.864-18.473-6.554c-75.858 13.046-139.735 56.095-190.976 128.082-4.014 5.652-4.71 13.005-1.843 19.313 2.888 6.308 8.909 10.588 15.79 11.244 6.902 0.655 13.619-2.417 17.633-8.069 45.548-63.98 100.68-101.11 165.99-112.353z" />
</font>
</defs>
</svg>
